<?xml version="1.0" encoding="utf-8"?>
<!-- Generator: Adobe Illustrator 15.0.0, SVG Export Plug-In . SVG Version: 6.00 Build 0)  -->
<!DOCTYPE svg PUBLIC "-//W3C//DTD SVG 1.1//EN" "http://www.w3.org/Graphics/SVG/1.1/DTD/svg11.dtd">
<svg version="1.1" id="Layer_1" xmlns="http://www.w3.org/2000/svg" xmlns:xlink="http://www.w3.org/1999/xlink" x="0px" y="0px"
	 width="1329.6px" height="831px" viewBox="0 0 1329.6 831" enable-background="new 0 0 1329.6 831" xml:space="preserve">
<g>
	<g>
		<g>
			<path fill="none" d="M1329.601,747.9c0,45.703-37.395,83.1-83.1,83.1H83.1C37.395,831,0,793.605,0,747.9V83.1
				C0,37.395,37.395,0,83.1,0h1163.401c45.703,0,83.1,37.395,83.1,83.1V747.9z"/>
			<g opacity="0.5">
				<path fill="none" d="M1246.501,2.77c44.301,0,80.328,36.028,80.328,80.33v664.8c0,44.301-36.027,80.324-80.328,80.324H83.1
					c-44.302,0-80.33-36.023-80.33-80.324V83.1c0-44.302,36.029-80.33,80.33-80.33H1246.501 M1246.501,0H83.1
					C37.395,0,0,37.395,0,83.1v664.8C0,793.604,37.395,831,83.1,831h1163.401c45.703,0,83.1-37.395,83.1-83.1V83.1
					C1329.601,37.395,1292.206,0,1246.501,0L1246.501,0z"/>
			</g>
		</g>
	</g>
	<g>
		<path fill-rule="evenodd" clip-rule="evenodd" fill="#E5E017" d="M973.059,414.865c0,166.299-134.81,301.111-301.113,301.111
			c-166.3,0-301.112-134.813-301.112-301.111c0-166.302,134.812-301.115,301.112-301.115
			C838.249,113.75,973.059,248.563,973.059,414.865z"/>
		<g>
			<g>
				<radialGradient id="SVGID_1_" cx="657.4326" cy="396.1025" r="180.4864" gradientUnits="userSpaceOnUse">
					<stop  offset="0.0242" style="stop-color:#0000FF"/>
					<stop  offset="0.0542" style="stop-color:#0101F9"/>
					<stop  offset="0.5107" style="stop-color:#0F0BA9"/>
					<stop  offset="0.8348" style="stop-color:#181277"/>
					<stop  offset="0.9939" style="stop-color:#1B1464"/>
				</radialGradient>
				<path fill-rule="evenodd" clip-rule="evenodd" fill="url(#SVGID_1_)" d="M405.091,371.686l-30.488-1.349
					c-1.124,8.781-1.853,22.537-2.207,31.541l56.245,0.153L405.091,371.686z"/>
				
					<radialGradient id="SVGID_2_" cx="669.5566" cy="401.8594" r="296.4418" fx="677.476" fy="401.0032" gradientUnits="userSpaceOnUse">
					<stop  offset="0.0242" style="stop-color:#0000FF"/>
					<stop  offset="0.0542" style="stop-color:#0101F9"/>
					<stop  offset="0.5107" style="stop-color:#0F0BA9"/>
					<stop  offset="0.8348" style="stop-color:#181277"/>
					<stop  offset="0.9939" style="stop-color:#1B1464"/>
				</radialGradient>
				<path fill-rule="evenodd" clip-rule="evenodd" fill="url(#SVGID_2_)" d="M671.979,111.709
					c-115.325,0-215.555,64.597-266.513,159.573c5.922,1.953,10.205,7.524,10.205,14.104c0,8.205-6.654,14.857-14.859,14.857
					c-2.945,0-5.682-0.867-7.992-2.343c-2.946,7.075-5.625,14.289-8.036,21.625c1.141,2.105,1.791,4.518,1.791,7.08
					c0,5.577-3.08,9.897-7.626,12.442c-1.953,7.712-3.598,16.952-4.946,22.952h33.691l33.946,39h65.467l-0.405,12.958l-37.583-0.301
					L446.489,457h-31.047c-1.197,9-7.284,12.658-14.631,12.658c-8.207,0-14.86-6.5-14.86-14.701c0-8.209,6.654-15.248,14.86-15.248
					c5.597,0,10.469,4.291,13.002,7.291h25.401l17.781-33h-87.286c0,23,2.715,46.607,7.842,68.673
					c5.304,2.269,9.023,7.527,9.023,13.662c0,3.279-1.076,6.3-2.878,8.761c2.258,7.153,4.778,14.186,7.542,21.097
					c2.587-2.182,5.924-3.504,9.573-3.504c8.206,0,14.859,6.653,14.859,14.861c0,7.421-5.451,13.558-12.564,14.662
					c50.184,97.416,151.747,164.044,268.873,164.044c166.941,0,302.273-135.338,302.273-302.276
					C974.253,247.044,838.921,111.709,671.979,111.709z M432.332,336.614c-8.206,0-14.859-6.654-14.859-14.857
					c0-8.208,6.653-14.862,14.859-14.862s14.859,6.653,14.859,14.862C447.191,329.96,440.537,336.614,432.332,336.614z
					 M432.332,503.915c-8.206,0-14.859-6.654-14.859-14.86c0-8.205,6.653-14.858,14.859-14.858s14.859,6.653,14.859,14.858
					C447.191,497.261,440.537,503.915,432.332,503.915z"/>
			</g>
			<g>
				<path fill-rule="evenodd" clip-rule="evenodd" fill="#FFFFFF" d="M641.672,346.393c-1.515-2.121-5.757-6.135-10.607-9.467
					c-4.85-3.337-14.85-4.926-14.85-4.926s-6.971,0-10.305,0c-3.333,0-14.248-0.077-17.581-0.077
					c-3.334,0-16.369,0.341-19.703,0.947c-3.334,0.603-6.371,1.912-10.309,3.427c-3.94,1.517-10.315,6.268-12.437,8.084
					c-2.122,1.82-6.687,7.225-7.898,9.044c-1.213,1.818-4.584,6.649-5.189,9.074c-0.607,2.427-3.714,13.647-3.714,13.647
					l-7.729,45.599l-17.679,97.055l-1.113,5.502c0,0,0.91,5.454,1.819,6.667c0.909,1.213,6.667,1.213,6.667,1.213
					s4.243-0.305,4.547-1.213c0.302-0.91,3.031-5.759,3.334-6.667c0.304-0.91,1.211-5.759,1.211-5.759l3.94-21.518l6.063-34.855
					l1.514,1.515c0,0,4.547,4.748,6.063,5.658c1.515,0.908,10.608,5.656,10.608,5.656h36.37c0,0,7.879-2.021,10.607-2.021
					c2.728,0,10.001-3.737,14.244-5.857c4.243-2.122,8.185-6.263,10.911-8.384c2.729-2.124,8.79-10.407,10.306-13.439
					c1.515-3.031,5.152-14.899,5.152-14.899l4.547-25.484c0,0,4.545-27.594,5.152-29.715c0.606-2.12,0.606-13.343,0.606-16.676
					C646.219,355.187,643.188,348.514,641.672,346.393z M622.276,420.853c0,0-2.426,11.718-4.042,14.547
					c-1.616,2.831-4.04,7.679-5.253,9.293c-1.212,1.618-7.376,6.566-9.498,7.779c-2.122,1.214-8.486,3.032-10.607,3.637
					c-2.123,0.605-36.674-0.303-36.674-0.303s-5.152-0.606-7.274-1.515c-2.121-0.909-8.486-4.851-10.002-6.972
					c-1.516-2.123-3.94-7.273-4.243-8.79c-0.302-1.515,0.102-7.372,0.102-7.372l10.607-57.285c0,0,0.859-6.006,2.476-8.434
					c1.616-2.423,5.682-8.056,6.895-9.674c1.211-1.616,6.882-4.595,8.093-4.997c1.213-0.403,8.904-1.768,8.904-1.768h39.603
					l7.274,0.366l6.061,3.616c0,0,4.043,4.636,4.447,6.251c0.403,1.621,1.616,9.188,1.616,10.807
					C630.762,371.655,622.276,420.853,622.276,420.853z"/>
				<path fill-rule="evenodd" clip-rule="evenodd" fill="#FFFFFF" d="M756.843,332h-58.191c0,0-12.122,1.589-13.94,2.803
					c-1.819,1.209-8.789,3.216-10.305,4.733c-1.517,1.518-4.243,3.73-5.76,5.247c-1.516,1.514-6.667,8.686-7.577,9.9
					c-0.908,1.213-4.546,7.828-5.15,10.251c-0.607,2.426-1.517,10.58-1.214,11.49c0.302,0.909,0,8.776,0.91,9.989
					c0.909,1.21,4.547,7.875,6.667,10.298c2.123,2.424,4.849,4.845,7.578,6.967c2.728,2.12,6.363,2.726,8.79,3.33
					c2.424,0.608,12.729,1.819,13.639,1.819c0.907,0,23.032-0.605,23.032-0.605s9.396-0.605,10.912,0
					c1.517,0.605,6.97,2.123,9.699,3.941c2.728,1.816,6.06,5.152,6.667,6.362c0.605,1.213,2.12,9.095,2.12,10.608
					c0,1.516-2.12,10.002-3.333,11.517c-1.211,1.517-4.243,6.063-6.97,8.486c-2.728,2.427-10.306,6.813-13.942,7.724
					c-3.638,0.908-55.465,0.14-55.465,0.14H650.16c0,0-3.638,0.011-5.457,0.919c-1.818,0.909-4.242,3.792-4.242,3.792l-0.607,4.169
					c0,0,0,1.481,1.817,3.905c1.819,2.427,1.516,1.799,4.244,2.404c2.729,0.607,72.134-0.008,72.134-0.008s6.972-1.218,14.242-4.554
					c7.275-3.331,13.034-9.696,15.155-11.211c2.122-1.518,9.396-15.158,10.306-16.979c0.91-1.818,2.729-13.031,2.423-14.546
					c-0.301-1.517-3.028-16.975-4.544-18.184c-1.516-1.214-7.274-7.882-8.791-8.49c-1.515-0.605-10-3.938-12.425-4.849
					c-2.425-0.908-8.184-0.604-8.184-0.604l-40.612-0.91c0,0-5.28-1.212-8.009-3.334c-2.725-2.12-8.312-8.788-8.312-9.999
					c0-1.214,0-8.185,0-8.185s1.946-5.151,2.556-7.273c0.603-2.122,5.214-6.972,7.034-8.487c1.818-1.517,6.849-5.35,9.272-6.26
					c2.426-0.908,9.277-2.316,10.489-2.316s48.493,0,48.493,0l13.941-0.26c0,0,3.638-0.887,4.85-2.099
					c1.212-1.214,2.728-5.594,2.728-5.594s0.304-4.311-0.605-4.918c-0.91-0.606-5.152-1.627-5.152-1.627L756.843,332z"/>
				<path fill-rule="evenodd" clip-rule="evenodd" fill="#FFFFFF" d="M895.654,357.608c-0.909-4.549-4.849-12.731-6.971-14.548
					c-2.121-1.819-9.093-7.151-10.607-7.757c-1.516-0.608-9.396-2.303-10.911-2.303c-1.517,0-44.855,0-44.855,0
					s-15.155,2.303-17.277,3.82c-2.12,1.512-10.606,7.512-12.425,9.33c-1.818,1.822-8.183,10.581-9.396,12.702
					c-1.212,2.123-2.728,9.379-3.639,11.802c-0.908,2.427-5.453,26.966-5.453,26.966l-4.243,29.7c0,0-2.123,12.726-1.819,14.848
					c0.304,2.121,3.031,10.001,4.243,13.032c1.211,3.031,6.061,7.878,7.881,9.092c1.818,1.21,6.97,4.847,8.788,5.454
					c1.819,0.606,3.032,0.91,8.487,1.819c5.455,0.91,15.76,1.213,15.76,1.213l49.705-0.607c0,0,6.364-0.605,7.273-0.605
					s5.759-0.909,6.061-2.121c0.305-1.214,2.729-5.759,2.729-5.759s0.605-1.979-0.605-3.798c-1.212-1.816-8.486-2.888-8.486-2.888
					h-69.406c0,0-1.515-0.598-3.942-1.505c-2.423-0.91-5.453-3.481-7.271-5.3c-1.818-1.818-4.244-7.046-4.85-8.864
					c-0.608-1.816,0-10.013-0.305-11.527c-0.304-1.515,4.244-18.804,4.244-18.804h92.137l4.85-1.542c0,0,3.031-1.677,3.939-3.495
					c0.908-1.818,3.031-9.783,3.031-9.783l3.029-22.166C895.351,374.015,896.563,362.154,895.654,357.608z M880.501,378.423
					L878.076,395h-87.287c0,0,1.818-12.634,2.425-16.875c0.604-4.243,1.515-9.805,3.637-12.835c2.122-3.032,3.03-6.571,6.364-9.902
					c3.333-3.334,5.456-4.044,7.576-5.255c2.123-1.212,9.094-3.083,9.094-3.083l22.125-1.237c0,0,20.608,0.592,21.519,0.896
					c0.908,0.303,5.152,0.902,7.881,2.721c2.728,1.819,4.243,2.726,6.062,4.846c1.817,2.122,3.636,8.587,3.94,10.711
					C881.714,367.108,880.501,378.423,880.501,378.423z"/>
			</g>
			<g>
				<path fill-rule="evenodd" clip-rule="evenodd" fill="#FFFFFF" d="M607.84,267.083c1.952,0.165,1.017,2.024,0.941,3.137
					c-0.083,1.205-0.438,2.648-0.626,3.763c-0.458,2.706-0.968,5.535-1.255,7.839c0.137,0.464,0.403-0.125,0.941,0
					c0.191-0.783,1.06-0.733,1.567-0.94c0.508-0.205,1.101-0.547,1.569-0.627c1.616-0.276,3.706,0,5.646,0
					c2.595,0,4.583-0.201,6.271,0.313c0.043,0.014,0.102,0.261,0.313,0.315c0.177,0.046,0.467-0.08,0.628,0
					c0.139,0.066,0.198,0.573,0.312,0.625c0.474,0.214,0.774,0.144,1.256,0.628c0.27,0.27,0.393,0.628,0.628,0.941
					c0.341,0.458,0.422,0.441,0.625,1.254c0.07,0.278,0.214,0.539,0.315,0.942c0.835,3.348-0.611,8.265-1.256,11.915
					c-0.165,0.944-0.155,1.938-0.312,2.822c-0.005,0.034-0.301,0.065-0.315,0.316c-0.051,0.972-0.143,1.392-0.313,2.504
					c-0.136,0.876-0.155,1.938-0.314,2.826c-0.005,0.033-0.3,0.061-0.314,0.313c-0.02,0.401,0.073,0.859,0,1.255
					c-0.006,0.038-0.297,0.057-0.312,0.313c-0.054,1.018-0.073,2.465-1.254,2.822c-0.252,0.219-0.861,0.488-0.942,0
					c-1.785-0.073-0.663-2.169-0.626-2.822c0.01-0.207-0.029-0.425,0-0.628c0.256-1.753,0.878-4.398,1.252-6.582
					c0.302-1.748,0.645-3.664,0.941-5.333c0.166-0.929,0.132-1.888,0.314-2.823c0.008-0.044,0.3-0.056,0.314-0.312
					c0.054-1.062,0.676-3.558,0.312-5.333c-0.084-0.418-0.73-1.788-1.253-2.194c-0.565-0.438-1.435-0.671-2.509-0.941
					c-1.79-0.447-8.59-0.558-10.661,0.316c-0.751,0.314-0.915,0.668-1.567,1.254c-0.483,0.431-1.275,0.827-1.568,1.253
					c-0.26,0.375-0.1,0.832-0.313,1.253c-0.084,0.163-0.58,0.5-0.627,0.629c-0.328,0.893-0.119,2.059-0.313,3.133
					c-0.006,0.038-0.299,0.064-0.314,0.316c-0.021,0.403,0.074,0.857,0,1.253c-0.006,0.038-0.299,0.059-0.313,0.312
					c-0.184,3.481-1.283,7.521-1.88,10.976c-0.051,0.293,0.085,0.659,0,0.941c-0.361,1.191-0.372,4.478-1.882,5.331
					c-0.252,0.219-0.86,0.488-0.941,0c-1.807-0.084-0.67-2.398-0.627-3.134c0.111-1.963,0.873-4.95,1.253-7.213
					c1.45-8.584,3.105-17.757,4.705-26.654c0.332-1.839,0.442-3.689,0.941-5.329c0.009-0.032,0.285,0.021,0.313,0
					c0.176-0.452,0.49-0.767,0.941-0.943C607.63,267.083,607.735,267.083,607.84,267.083z"/>
				<path fill-rule="evenodd" clip-rule="evenodd" fill="#FFFFFF" d="M552.648,280.254c2.725,0,5.222,0,7.841,0
					c2.247,0,6.531-0.562,7.841,0.313c0.351,0.235,2.341,1.084,2.822,1.568c0.377,0.378,1.521,2.636,1.569,2.824
					c0.084,0.342,0.178,0.632,0.312,1.565c0.014,0.097,0.163,1.077,0,2.197c-0.042,0.29-0.946,5.359-1.255,7.213
					c-0.162,0.986-0.136,2.166-0.313,3.135c-0.007,0.033-0.301,0.058-0.312,0.313c-0.022,0.402,0.073,0.857,0,1.254
					c-0.008,0.039-0.302,0.059-0.314,0.313c-0.059,1.112-0.425,2.609-0.628,3.764c-0.391,2.223-0.458,4.262-1.252,5.644
					c-2.238,0.488-5.136,0.313-7.84,0.313c-3.463,0-6.631,0.18-9.094-0.313c-0.099-0.017-0.568,0.072-0.627,0
					c-0.089-0.11-1.41-0.913-1.88-0.94c-0.396-0.02-0.984-0.852-1.569-1.57c-0.077-0.092-0.588-0.225-0.627-0.312
					c-0.075-0.166,0.09-0.469,0-0.628c-0.087-0.146-0.585-0.504-0.628-0.625c-0.063-0.188,0.049-0.436,0-0.627
					c-0.047-0.194-0.312-0.314-0.312-0.316c-0.308-1.977-0.013-4.264,0.312-5.33c0.014-0.042,0.261-0.103,0.315-0.314
					c0.105-0.424,0.105-0.629,0.313-0.939c0.093-0.143,0.262-0.23,0.313-0.314c0.295-0.473,0.555-0.939,0.941-1.567
					c0.167-0.269,0.509-0.926,0.942-1.255c0.43-0.328,0.997-0.473,1.566-0.939c0.696-0.57,1.969-1.153,3.449-1.57
					c0.106-0.027,0.565,0.08,0.628,0c0.019-0.021-0.021-0.307,0-0.312c4.041-0.663,9.079,0.485,14.109,0
					c1.056,0.127,0.968-5.971,0.629-6.901c-0.123-0.326-1.011-1.669-1.255-1.879c-0.106-0.092-0.891-0.604-0.942-0.628
					c-0.912-0.394-2.529-0.274-4.074-0.313c-2.764-0.067-5.71,0.218-8.781,0c-1.174-0.087-2.693,0.422-3.135-0.941
					c0-0.313,0-0.628,0-0.941C551.887,280.741,552.199,280.429,552.648,280.254z M554.219,295.935
					c-1.313,0.527-3.168,1.708-3.764,2.506c-0.098,0.133,0.069,0.477,0,0.629c-0.051,0.113-0.558,0.173-0.627,0.313
					c-0.081,0.161,0.044,0.451,0,0.626c-0.059,0.235-0.289,0.242-0.313,0.316c-0.342,0.958-0.632,2.832-0.315,4.076
					c0.008,0.024,0.29-0.023,0.315,0c0.089,0.071-0.055,0.511,0,0.625c0.017,0.038,0.276-0.029,0.313,0
					c0.103,0.084-0.079,0.511,0,0.629c0.241,0.349,1.307,1.24,1.568,1.252c0.335,0.019,0.173,0.256,0.314,0.315
					c0.931,0.396,2.269,0.271,3.449,0.313c4.14,0.145,7.986-0.108,11.915,0c0.359-4.243,1.417-7.781,1.883-11.916
					C564.635,296.22,557.313,294.681,554.219,295.935z"/>
				<path fill-rule="evenodd" clip-rule="evenodd" fill="#FFFFFF" d="M601.256,281.194c0.085,1.987-1.834,1.733-2.823,1.882
					c-3.995,0.602-10.66-0.861-14.112,0.313c-0.696,0.237-1.52,0.503-2.195,0.941c-0.702,0.457-1.218,1.069-1.879,1.881
					c-0.143,0.173-0.527,0.457-0.629,0.628c-0.066,0.115,0.099,0.543,0,0.625c-0.857,0.703-0.931,3.407-1.254,5.019
					c-0.019,0.101,0.071,0.569,0,0.625c-0.525,0.432,0.195,1.472-0.312,1.883c-0.398,0.324-0.673,2.566-0.941,4.078
					c-0.214,1.201-0.652,2.68-0.629,3.759c0.006,0.213,0.259,0.373,0.314,0.63c0.063,0.287-0.091,0.661,0,0.942
					c0.256,0.768,0.686,1.352,1.256,1.881c0.509,0.471,1.216,0.588,1.881,1.252c3.982,0.258,8.847-0.334,13.17,0
					c1.096,0.085,2.618-0.291,3.135,0.939c0.377,2.934-3.98,2.195-6.899,2.195c-3.697,0-7.653,0.166-10.034-0.313
					c-0.1-0.017-0.57,0.072-0.628,0c-0.021-0.027,0.029-0.305,0-0.312c-0.655-0.181-1.312-0.178-1.566-0.313
					c-0.2-0.111-0.367-0.469-0.629-0.627c-0.688-0.427-0.852-0.746-1.566-1.882c-0.122-0.195-0.53-0.45-0.626-0.627
					c-0.066-0.116,0.094-0.546,0-0.627c-0.401-0.327-0.169-0.638-0.316-1.255c-0.061-0.261-0.281-0.308-0.312-0.627
					c-0.236-2.368,0.819-5.515,1.254-7.841c0.548-2.93,0.632-6.877,1.88-9.719c0.065-0.144,0.296,0.022,0.315-0.313
					c0.008-0.145,0.235-0.455,0.314-0.63c0.333-0.722,0.656-1.281,1.567-2.193c0.697-0.698,1.3-1.013,2.195-1.567
					c0.183-0.11,0.465-0.546,0.627-0.627c0.626-0.31,1.4-0.463,1.883-0.627c2.469-0.83,10.012-0.557,14.11-0.313
					C598.939,280.32,600.672,279.745,601.256,281.194z"/>
			</g>
		</g>
	</g>
</g>
</svg>

