<?xml version="1.0" encoding="utf-8"?>
<!-- Generator: Adobe Illustrator 21.0.0, SVG Export Plug-In . SVG Version: 6.00 Build 0)  -->
<svg version="1.1" id="Layer_1" xmlns="http://www.w3.org/2000/svg" xmlns:xlink="http://www.w3.org/1999/xlink" x="0px" y="0px"
                    viewBox="0 0 39.5 32.9" style="enable-background:new 0 0 39.5 32.9;" xml:space="preserve">
                <style type="text/css">
                    .st01{fill:#802E8C;}
                </style>
                <g>
                    <g>
                        <path class="st01" d="M8.5,19.5c0-0.4-0.3-0.7-0.7-0.7H6.5l1.2-2.9h4.7l1.2,2.9h-1.3c-0.4,0-0.7,0.3-0.7,0.7s0.3,0.7,0.7,0.7H18
                            c0.4,0,0.7-0.3,0.7-0.7s-0.3-0.7-0.7-0.7h-0.7L11.4,5.6H10L4.1,18.7H3.4c-0.4,0-0.7,0.3-0.7,0.7s0.3,0.7,0.7,0.7h4.4
                            C8.2,20.2,8.5,19.9,8.5,19.5z M10,10l1.7,4.4H8.2L10,10z"/>
                        <path class="st01" d="M25.3,18.7c-0.4,0-0.7,0.3-0.7,0.7s0.3,0.7,0.7,0.7h6.6c2.4,0,4.4-2,4.4-4.4c0-1.8-1.1-3.4-2.7-4
                            c0.8-0.7,1.2-1.5,1.2-2.5c0-2-2-3.7-4.4-3.7h-5.1c-0.4,0-0.7,0.3-0.7,0.7s0.3,0.7,0.7,0.7H26v11.7H25.3z M28.9,7.1h1.5
                            c0.8,0,1.5,1,1.5,2.2s-0.7,2.2-1.5,2.2h-1.5V7.1z M28.9,12.9h1.5c1.6,0,2.9,1.3,2.9,2.9c0,1.6-1.3,2.9-2.9,2.9h-1.5V12.9z"/>
                        <path class="st01" d="M26,30.4l-4.4-5.8l-4.4,5.8H26z"/>
                        <path class="st01" d="M36.3,21.7c0,0.8-0.7,1.5-1.5,1.5H7c-0.8,0-1.5-0.7-1.5-1.5H4.1c0,1.6,1.3,2.9,2.9,2.9h14.6h13.2
                            c1.6,0,2.9-1.3,2.9-2.9H36.3z"/>
                    </g>
                </g>
                </svg>
