<?xml version="1.0" encoding="utf-8"?>
<!-- Generator: Adobe Illustrator 21.0.0, SVG Export Plug-In . SVG Version: 6.00 Build 0)  -->
<svg version="1.1" id="productos" xmlns="http://www.w3.org/2000/svg" xmlns:xlink="http://www.w3.org/1999/xlink" x="0px" y="0px"
                    viewBox="0 0 634.3 619.5" style="enable-background:new 0 0 634.3 619.5;" xml:space="preserve">
                <style type="text/css">
                    .st01{fill:none;stroke:#802E8B;stroke-width:38.9085;stroke-miterlimit:10;}
                </style>
                <path class="st01" d="M560.8,184.6c-20.9-74.4-95.3-120.9-169.5-105.7c-23.9,4.9-46.6,16.1-69.3,34.3c-2.6-2-5.1-3.9-7.6-5.7
                    C277.5,81,239.9,71.4,199.4,78.2c-36.6,6.1-70.7,28-93.6,59.9c-23.2,32.4-32.9,71-27.2,108.8c5.3,35.2,22,66.8,51.2,96.6
                    c46.9,47.8,93.8,95.6,140.7,143.3l32,32.6c4.3,4.4,11,10.2,19.5,10.2c0,0,0,0,0,0c8.5,0,15.5-6,19.9-10.6c16.7-17,33.3-33.9,50-50.9
                    c12.7-13,25.5-25.9,38.3-38.9c29.2-29.6,59.4-60.1,88.6-90.8C562.4,292.4,576.5,240.7,560.8,184.6z"/>
                </svg>
