<?xml version="1.0" encoding="utf-8"?>
<!-- Generator: Adobe Illustrator 21.0.0, SVG Export Plug-In . SVG Version: 6.00 Build 0)  -->
<svg version="1.1" id="Layer_1" xmlns="http://www.w3.org/2000/svg" xmlns:xlink="http://www.w3.org/1999/xlink" x="0px" y="0px"
	 viewBox="0 0 19.2 24.5" style="enable-background:new 0 0 19.2 24.5;" xml:space="preserve">
<style type="text/css">
	.st0{fill:none;stroke:#000000;stroke-miterlimit:10;}
	.st1{fill:none;stroke:#474645;stroke-width:1.3714;stroke-linecap:round;stroke-linejoin:round;stroke-miterlimit:10;}
	.st2{fill:none;stroke:#000000;stroke-linecap:round;stroke-linejoin:round;stroke-miterlimit:10;}
	.st3{fill:none;stroke:#9158A2;stroke-width:1.3714;stroke-linecap:round;stroke-linejoin:round;stroke-miterlimit:10;}
	.st4{fill:none;stroke:url(#);stroke-width:2.7692;stroke-linecap:round;stroke-linejoin:round;stroke-miterlimit:10;}
	.st5{fill:none;stroke:url(#);stroke-width:2.7651;stroke-linecap:round;stroke-linejoin:round;stroke-miterlimit:10;}
	.st6{fill:none;stroke:url(#);stroke-width:2.676;stroke-linecap:round;stroke-linejoin:round;stroke-miterlimit:10;}
</style>
<path d="M2.2,15.4c0-1.9,0.6-3.7,1.4-5.4c1.2-2.8,2.9-5.4,4.8-7.8C8.7,1.8,9,1.4,9.3,1c0.4-0.5,0.9-0.5,1.3,0
	c2.7,3.4,5.1,6.9,6.5,11.1c0.5,1.4,0.7,2.8,0.6,4.3c-0.4,3.1-2.5,5.6-5.4,6.5c-3.9,1.2-7.9-0.7-9.5-4.4C2.4,17.5,2.2,16.5,2.2,15.4z
	 M9.9,21.7c0-6.4,0-12.7,0-19c0,0-0.1,0-0.1,0C8.9,4,7.9,5.4,7.1,6.8C5.6,9,4.4,11.4,3.8,14.1c-0.6,3.3,1.1,6.1,3.8,7.2
	C8.4,21.6,9.1,21.7,9.9,21.7z"/>
</svg>
