<?xml version="1.0" encoding="utf-8"?>
<!-- Generator: Adobe Illustrator 21.0.0, SVG Export Plug-In . SVG Version: 6.00 Build 0)  -->
<svg version="1.1" id="Capa_1" xmlns="http://www.w3.org/2000/svg" xmlns:xlink="http://www.w3.org/1999/xlink" x="0px" y="0px"
	 viewBox="0 0 1024 334" style="enable-background:new 0 0 1024 334;" xml:space="preserve">
<style type="text/css">
	.st0{fill:#E1001A;}
	.st1{fill:none;}
	.st2{fill:#00519C;}
	.st3{fill:#EAF6FB;}
</style>
<g>
	<g>
		<path class="st0" d="M797.3,161.6c17.7,6.3,25.3,15.5,25.3,15.5s9.2-23.8,31.6-16.9c0,0-20.9,14.9-20.5,29.3
			c0.4,13.4-10.2,26.9-41.8,33.3c-13.4,2.7-17.4,5-17.6,6.8H934L821.7,87.7l-58.1,74.4C771.9,158.8,783.5,156.7,797.3,161.6z"/>
		<path class="st0" d="M786.1,191.3c4.3-18-29.9-9.6-42.5-3.5l-32.7,41.9h30.6C754.4,221.1,783.9,200.7,786.1,191.3z"/>
	</g>
	<g>
		<path class="st1" d="M512.1,145.1c4.5-3.7,6.8-8.9,6.8-15.8c0-3.9-1.4-6.8-4.3-8.7c-2.9-1.9-7.4-2.8-13.4-2.8c-0.4,0-1,0-1.8,0.1
			c-0.9,0.1-1.6,0.1-2.1,0.1l-7.4,32.6h3C501.2,150.6,507.6,148.8,512.1,145.1z"/>
		<path class="st1" d="M378.7,122.6c-3.3-1.8-8-2.8-14.2-2.8h-2.8l-6.9,30.2c0.7,0.1,1.5,0.2,2.3,0.2c0.8,0,1.8,0,3,0
			c7.9,0,13.7-1.6,17.7-4.9c3.9-3.2,5.9-8.1,5.9-14.7C383.6,127.2,382,124.5,378.7,122.6z"/>
		<polygon class="st2" points="108,181.1 52.4,181.1 51.8,183.8 107.4,183.8 		"/>
		<path class="st2" d="M121.3,123.4c6.1,0.3,10.6,1.9,13.3,4.6c2.8,2.8,4.1,7.1,4.1,13.1c0,9.1-1.5,18.3-4.5,27.5
			c-0.9,2.7-1.8,5.1-2.7,7.3h53.8c4.5-11,6.9-22.3,6.9-34c0-17.8-6.3-30.9-18.8-39.4c-12.5-8.5-31.9-12.7-58.3-12.7H73.4l-19.8,86.1
			h55.6L121.3,123.4z"/>
		<path class="st2" d="M42,226.3h41.6c21.8,0,37.9-1.2,48.2-3.5c10.3-2.3,19.4-6.3,27.3-11.8c6.5-4.6,12.1-10.6,17-17.7H49.6
			L42,226.3z"/>
		<path class="st2" d="M125.3,186.5c-0.1,0.1-0.2,0.2-0.3,0.3c-1.7,1.6-3.7,2.8-6.1,3.8H178c0.8-1.3,1.5-2.7,2.3-4.1H125.3z"/>
		<polygon class="st2" points="106.8,186.5 51.2,186.5 50.2,190.6 105.8,190.6 		"/>
		<path class="st2" d="M181.7,183.8c0.4-0.8,0.9-1.5,1.3-2.3c0.1-0.2,0.1-0.3,0.2-0.5h-54.1c-0.5,1-1.1,2-1.6,2.8H181.7z"/>
		<polygon class="st2" points="187.8,186.5 186.9,190.6 242,190.6 243,186.5 		"/>
		<polygon class="st2" points="178.7,226.3 276.6,226.3 284.2,193.2 186.3,193.2 		"/>
		<polygon class="st2" points="243.6,183.8 244.3,181.1 189.1,181.1 188.4,183.8 		"/>
		<polygon class="st2" points="246.4,172.2 285,172.2 292.1,140.2 253.5,140.2 257.7,122.8 300.4,122.8 308,89.7 210.1,89.7 
			190.3,175.8 245.5,175.8 		"/>
		<polygon class="st2" points="291.2,186.5 290.3,190.6 345.4,190.6 346.3,186.5 		"/>
		<polygon class="st2" points="346.9,183.8 347.5,181.1 292.5,181.1 291.8,183.8 		"/>
		<path class="st2" d="M414.8,167.2c13.9-9.1,20.9-22.2,20.9-39.3c0-13.5-5.9-23.2-17.6-29.2c-11.7-6-30.8-9-57.3-9h-47.4
			l-19.8,86.1h102.1C403,173.6,409.4,170.8,414.8,167.2z M360,150.4c-1.2,0-2.2,0-3,0c-0.8,0-1.6-0.1-2.3-0.2l6.9-30.2h2.8
			c6.2,0,11,0.9,14.2,2.8c3.3,1.8,4.9,4.6,4.9,8.2c0,6.6-2,11.5-5.9,14.7C373.8,148.8,367.9,150.4,360,150.4z"/>
		<polygon class="st2" points="282.1,226.3 337.3,226.3 344.8,193.2 289.7,193.2 		"/>
		<polygon class="st2" points="538.4,183.8 537.3,181.1 487.1,181.1 487.7,183.8 		"/>
		<polygon class="st2" points="481.9,183.8 482.6,181.1 427.5,181.1 426.9,183.8 		"/>
		<polygon class="st2" points="488.3,186.5 489.2,190.6 541.2,190.6 539.5,186.5 		"/>
		<path class="st2" d="M484.8,171.1l1.1,4.7h49.3l-3.8-9.3c13.2-2.3,23.3-7.1,30.3-14.2c7-7.2,10.5-16.3,10.5-27.5
			c0-12.8-5.5-21.8-16.6-27.1c-11.1-5.3-31.2-8-60.4-8h-46.6l-19.8,86.1h55L484.8,171.1z M497.3,118c0.5,0,1.2,0,2.1-0.1
			c0.9-0.1,1.5-0.1,1.8-0.1c6,0,10.5,0.9,13.4,2.8c2.9,1.9,4.3,4.8,4.3,8.7c0,6.9-2.3,12.1-6.8,15.8c-4.5,3.7-11,5.5-19.4,5.5h-3
			L497.3,118z"/>
		<polygon class="st2" points="417.1,226.3 472.3,226.3 479.8,193.2 424.7,193.2 		"/>
		<polygon class="st2" points="542.3,193.2 489.8,193.2 497.3,226.3 554.5,226.3 554.9,224.3 		"/>
		<polygon class="st2" points="426.3,186.5 425.3,190.6 480.4,190.6 481.3,186.5 		"/>
		<polygon class="st2" points="563.6,186.5 562.6,190.6 617.8,190.6 618.7,186.5 		"/>
		<polygon class="st2" points="619.3,183.8 620,181.1 564.8,181.1 564.2,183.8 		"/>
		<polygon class="st2" points="554.9,224.3 555.7,226.3 609.6,226.3 617.2,193.2 562,193.2 		"/>
		<polygon class="st2" points="641,89.7 585.7,89.7 566,175.8 621.2,175.8 		"/>
		<polygon class="st2" points="554.5,226.3 555.7,226.3 554.9,224.3 		"/>
		<path class="st2" d="M731.9,164.9c-3.2-5-10-11-20.3-18c-0.7-0.5-1.7-1.2-3-2.1c-10.2-7-15.3-12.4-15.3-16.3c0-2.9,1.3-5.1,4-6.8
			c2.7-1.7,6.3-2.5,10.9-2.5c5.1,0,10.5,0.8,16.2,2.2c5.6,1.5,11.4,3.7,17.4,6.6l7.9-33.3c-7.8-2.7-15.4-4.7-22.9-5.9
			c-7.5-1.3-15.4-1.9-23.7-1.9c-20.5,0-36.7,3.8-48.7,11.5c-12,7.7-17.9,18-17.9,31.1c0,5.8,1.8,11.1,5.3,15.9
			c3.5,4.8,10,10.4,19.4,16.7c7.8,5.1,13,9.2,15.7,12.3c0.4,0.5,0.7,0.9,1.1,1.4h58.3C735.4,171.8,734,168.2,731.9,164.9z"/>
		<path class="st2" d="M662.8,195.4c-5.4,0-10.9-0.8-16.7-2.2h-24.5l-7.1,27.2c5.9,2.8,13.1,5,21.7,6.6c8.6,1.6,17.8,2.4,27.4,2.4
			c22.7,0,40.5-4.2,53.5-12.6c9.6-6.2,15.6-14,18.1-23.5h-61.2C671.2,194.7,667.4,195.4,662.8,195.4z"/>
		<path class="st2" d="M623.4,186.5l-1.1,4.1h15.2c-3.2-1.2-6.4-2.5-9.4-4.1H623.4z"/>
		<path class="st2" d="M678.1,190.6h57.8c0.3-1.3,0.5-2.7,0.6-4.1h-56C680.1,188,679.3,189.4,678.1,190.6z"/>
		<path class="st2" d="M680.9,183.7c0,0,0,0.1,0,0.1h55.8c0-0.5,0.1-1.1,0.1-1.6c0-0.4-0.1-0.8-0.1-1.2h-56.2
			C680.7,181.9,680.9,182.8,680.9,183.7z"/>
		<path class="st3" d="M118.9,190.6c-0.5,0.2-0.8,0.4-1.3,0.6c-2.9,1.1-6,1.6-9.3,1.6c-0.8,0-1.4,0-1.8-0.1c-0.4,0-0.8-0.1-1.2-0.1
			l0.5-2H50.2l-0.6,2.6h126.5c0.6-0.9,1.3-1.7,1.9-2.6H118.9z"/>
		<polygon class="st3" points="241.9,191 242,190.6 186.9,190.6 186.3,193.2 284.2,193.2 284.7,191 		"/>
		<polygon class="st3" points="290.3,190.6 289.7,193.2 344.8,193.2 345.4,190.6 		"/>
		<polygon class="st3" points="541.2,190.6 489.2,190.6 489.8,193.2 542.3,193.2 		"/>
		<polygon class="st3" points="425.3,190.6 424.7,193.2 479.8,193.2 480.4,190.6 		"/>
		<polygon class="st3" points="562.6,190.6 562,193.2 617.2,193.2 617.8,190.6 		"/>
		<path class="st3" d="M643.4,192.5c-2-0.6-3.9-1.2-5.9-1.9h-15.2l-0.7,2.6h24.5C645.2,193,644.3,192.8,643.4,192.5z"/>
		<path class="st3" d="M676,192.3c-0.6,0.4-1.2,0.6-1.8,0.9h61.2c0.2-0.9,0.4-1.7,0.6-2.6h-57.8C677.5,191.2,676.8,191.8,676,192.3z
			"/>
		<polygon class="st3" points="107.4,183.8 51.8,183.8 51.2,186.5 106.8,186.5 		"/>
		<path class="st3" d="M127.5,183.8c-0.7,1.1-1.5,1.9-2.2,2.6h55c0.5-0.9,1-1.7,1.5-2.6H127.5z"/>
		<polygon class="st3" points="188.4,183.8 187.8,186.5 243,186.5 243.6,183.8 		"/>
		<polygon class="st3" points="291.8,183.8 291.2,186.5 346.3,186.5 346.9,183.8 		"/>
		<polygon class="st3" points="426.9,183.8 426.3,186.5 481.3,186.5 481.9,183.8 		"/>
		<polygon class="st3" points="487.7,183.8 488.3,186.5 539.5,186.5 538.4,183.8 		"/>
		<polygon class="st3" points="563.6,186.5 618.7,186.5 619.3,183.8 564.2,183.8 		"/>
		<path class="st3" d="M624,184.3l-0.6,2.2h4.6C626.7,185.8,625.3,185.1,624,184.3z"/>
		<path class="st3" d="M680.5,186.5h56c0.1-0.9,0.1-1.7,0.1-2.6h-55.8C680.8,184.8,680.7,185.7,680.5,186.5z"/>
		<polygon class="st3" points="109.2,175.8 53.6,175.8 52.4,181.1 108,181.1 		"/>
		<path class="st3" d="M129.1,181.1h54.1c0.8-1.7,1.5-3.5,2.2-5.3h-53.8C130.8,177.8,130,179.5,129.1,181.1z"/>
		<polygon class="st3" points="244.3,181.1 245.5,175.8 190.3,175.8 189.1,181.1 		"/>
		<path class="st3" d="M347.5,181.1l0.1-0.3c0.8,0,2,0,3.7,0.1c1.7,0.1,2.9,0.1,3.7,0.1c15.8,0,29.3-1.7,40.7-5.1H293.7l-1.2,5.3
			H347.5z"/>
		<polygon class="st3" points="482.6,181.1 483.7,175.8 428.7,175.8 427.5,181.1 		"/>
		<polygon class="st3" points="487.1,181.1 537.3,181.1 535.2,175.8 485.9,175.8 		"/>
		<polygon class="st3" points="620,181.1 621.2,175.8 566,175.8 564.8,181.1 		"/>
		<path class="st3" d="M677.9,175.8c1.3,1.7,2.2,3.5,2.6,5.3h56.2c-0.1-1.8-0.3-3.6-0.6-5.3H677.9z"/>
	</g>
</g>
</svg>

