<?xml version="1.0" encoding="utf-8"?>
<!-- Generator: Adobe Illustrator 15.0.0, SVG Export Plug-In . SVG Version: 6.00 Build 0)  -->
<!DOCTYPE svg PUBLIC "-//W3C//DTD SVG 1.1//EN" "http://www.w3.org/Graphics/SVG/1.1/DTD/svg11.dtd">
<svg version="1.1" id="Layer_1" xmlns="http://www.w3.org/2000/svg" xmlns:xlink="http://www.w3.org/1999/xlink" x="0px" y="0px"
	 width="1329.6px" height="831px" viewBox="0 0 1329.6 831" enable-background="new 0 0 1329.6 831" xml:space="preserve">
<g>
	<g>
		<g>
			<path fill="none" d="M1329.601,747.9c0,45.703-37.395,83.1-83.1,83.1H83.1C37.395,831,0,793.605,0,747.9V83.1
				C0,37.395,37.395,0,83.1,0h1163.401c45.703,0,83.1,37.395,83.1,83.1V747.9z"/>
			<g opacity="0.5">
				<path fill="none" d="M1246.501,2.77c44.301,0,80.328,36.028,80.328,80.33v664.8c0,44.301-36.027,80.324-80.328,80.324H83.1
					c-44.302,0-80.33-36.023-80.33-80.324V83.1c0-44.302,36.029-80.33,80.33-80.33H1246.501 M1246.501,0H83.1
					C37.395,0,0,37.395,0,83.1v664.8C0,793.604,37.395,831,83.1,831h1163.401c45.703,0,83.1-37.395,83.1-83.1V83.1
					C1329.601,37.395,1292.206,0,1246.501,0L1246.501,0z"/>
			</g>
		</g>
	</g>
	<g>
		<path fill-rule="evenodd" clip-rule="evenodd" fill="#000002" d="M1008.578,345.622l0.338,80.137
			c0.667,7.665,1.669,11.996,3.163,15.156c10.831,23.659,48.315,21.5,70.142,7.335l-9.659-20.16
			c-7.164,2.668-15.663,8.663-25.823,5.497c-9-2.662-8.336-13.325-8.336-23.823v-64.812l60.482,0.167l48.649,110.961
			c0.997,4.835-9.834,23.99-12.162,27.155c-16.832,23.659-32.49,13.662-45.988,10.662l-6.663,23.999
			c25.66,9.822,52.484,6.163,67.476-10.167c13.326-14.495,20.999-34.819,29.323-57.48l46.647-128.956h-30.988l-32.82,99.134
			c-3.33-3.666-28.655-67.142-33.32-77.969c-6.33-14.664-15.496-20.994-34.989-21.165c-18.325-0.165-36.821,0-55.646,0v-39.815
			c-6.496,1.5-24.988,6.997-29.824,9.493v29.827l-23.983,0.331l0.167,23.824L1008.578,345.622z M352.521,206.102
			c98.58,0,163.375,79.272,144.708,177.209c-18.667,97.939-113.817,177.212-212.397,177.212
			c-98.69,0-163.482-79.273-144.817-177.212C158.788,285.374,253.83,206.102,352.521,206.102 M399.611,229.055
			c61.04,21.35,96.44,82.385,82.708,154.256c-15.985,83.779-93.004,152.759-176.677,161.553c-6.648-0.217-6.756-3.97-6.972-9.547
			c0.323-11.584,0.751-23.276,1.074-34.865c0.106-1.719-0.538-2.254-1.289-2.468c-8.583-0.857-17.056-2.786-25.424-5.363
			c-9.01-3.539-18.127-8.688-27.246-14.588c-4.186-2.035-3.649-11.69-3.542-15.449c0.752-6.863,5.792-22.847,13.945-23.6
			c9.762-0.531,14.375,4.614,24.03,9.334c16.949,8.049,40.657,12.768,58.249,4.505c8.474-5.149,10.512-12.121,6.543-20.917
			c-6.865-14.375-39.796-26.176-54.709-33.361c-35.719-15.234-55.672-46.124-49.343-82.919c4.719-27.142,30.143-47.737,56.746-51.49
			v-12.982c-32.825,9.549-57.82,28.427-80.238,50.419c-32.504,31.75-51.598,71.871-53.208,123.146
			c2.577,62.757,35.186,90.539,69.298,111.352c-58.569-22.637-92.039-82.494-78.63-152.759
			c16.413-86.029,97.08-156.4,183.434-162.086c3.434,2.037,3.648,2.361,5.474,6.974c-0.755,10.834-1.399,21.667-2.148,32.503
			c17.055,3.434,33.147,8.257,46.129,19.309c0.429,24.885-18.238,35.291-25.319,31.535c0.321-1.177-28.105-9.009-34.003-10.402
			c-7.186-1.181-14.269-0.752-21.35,2.466c-8.363,3.968-12.334,9.867-8.363,19.095c3.431,6.865,9.117,11.37,15.336,15.23
			c17.917,9.656,35.829,19.417,53.747,29.068c15.445,8.692,26.494,19.958,33.573,33.579c5.149,13.518,6.328,27.246,3.327,41.19
			c-3.541,11.374-7.832,21.241-14.375,27.466c-5.47,6.217-11.479,11.049-17.913,14.479c-9.123,4.827-18.239,9.12-27.679,10.618
			c-0.321,5.794-0.536,11.479-0.856,17.272c0.751,0.432,1.501,0.214,2.358,0c20.274-6.543,38.083-18.021,55.461-30.572
			c22.528-19.845,43.551-40.655,54.602-67.58c7.509-15.021,13.3-31.648,16.09-51.171C478.563,307.578,458.61,256.09,399.611,229.055
			 M668.704,321.293l0.334-29.656c-0.334-10.49,9.162-26.822,22.158-32.817c11.996-5.501,34.82-5.834,46.15,1.495l-5.501,23.495
			c-33.819-7.496-33.651-1.166-33.651,37.484h36.818l-9.494,23.495l-27.324,0.164v110.631c-5.502,0.665-24.658,0.997-29.49-0.336
			V345.119l-14.828-0.331l-9.163-23.324L668.704,321.293z M867.636,392.107c1.828,79.133,87.799,74.808,110.96,53.809
			c-0.831-3.326-6.663-18.162-8.67-20.157c-15.822,6.497-31.322,13.827-50.478,4.333c-29.824-14.667-27.658-70.148,2.499-83.972
			c11.658-5.333,27.821-4.834,39.984,0.332c4.335,2.001,7.497,4.168,10.998,5.664v-25.658c-17.661-6.993-30.487-11.661-52.817-6.659
			C886.458,327.626,866.965,358.451,867.636,392.107 M554.079,374.446c2.167-17.998,8.999-32.826,28.157-33.16
			c18.492-0.331,27.323,14.998,28.157,33.492L554.079,374.446z M636.714,445.916l-8.329-19.656
			c-7.831,2.161-12.661,5.996-22.826,7.829c-26.489,4.5-50.481-7.829-50.981-37.988h86.137c0-30.158-5.333-64.805-38.987-75.304
			c-15.495-5.001-34.488-3.164-47.315,4.5c-46.65,27.988-44.317,134.446,37.485,133.449
			C607.559,458.579,627.552,454.25,636.714,445.916 M765.671,374.778c1.496-18.162,9.826-33.329,28.486-33.492
			c17.995,0,27.157,15.665,27.328,33.492H765.671z M735.681,394.105c3.162,49.815,41.819,73.306,89.302,62.143
			c10.497-2.505,15.496-6.498,23.327-9.166l-8.332-20.991c-11.995,3.665-27.491,13.994-49.15,6.498
			c-14.331-5.169-24.325-17.66-24.826-36.321l86.306-0.167c0-39.314-11.828-77.801-57.148-78.136
			C750.839,317.466,733.346,354.784,735.681,394.105"/>
		<g>
			<linearGradient id="SVGID_1_" gradientUnits="userSpaceOnUse" x1="258.7183" y1="270.6309" x2="399.7398" y2="561.1152">
				<stop  offset="0" style="stop-color:#DEB427"/>
				<stop  offset="0.0175" style="stop-color:#DEB228;stop-opacity:0.9585"/>
				<stop  offset="0.1855" style="stop-color:#DE9F2E;stop-opacity:0.5592"/>
				<stop  offset="0.303" style="stop-color:#DE9830;stop-opacity:0.28"/>
				<stop  offset="0.3201" style="stop-color:#E1A346;stop-opacity:0.3477"/>
				<stop  offset="0.4015" style="stop-color:#F1D4A9;stop-opacity:0.6699"/>
				<stop  offset="0.4581" style="stop-color:#FBF3E7;stop-opacity:0.8941"/>
				<stop  offset="0.4848" style="stop-color:#FFFFFF"/>
				<stop  offset="0.5129" style="stop-color:#FEFDF9"/>
				<stop  offset="0.5487" style="stop-color:#FBF7EA"/>
				<stop  offset="0.5886" style="stop-color:#F7ECD0"/>
				<stop  offset="0.6315" style="stop-color:#F1DEAB"/>
				<stop  offset="0.6769" style="stop-color:#E9CC7C"/>
				<stop  offset="0.7235" style="stop-color:#E0B544"/>
				<stop  offset="0.7455" style="stop-color:#DBAA27"/>
			</linearGradient>
			
				<path fill="url(#SVGID_1_)" stroke="#D16F1D" stroke-width="4" stroke-linecap="round" stroke-linejoin="round" stroke-miterlimit="10" d="
				M391.261,232.563c59.139,20.685,93.438,79.821,80.131,149.453c-15.486,81.17-90.107,148.001-171.176,156.523
				c-6.441-0.21-6.545-3.847-6.753-9.252c0.313-11.224,0.727-22.552,1.04-33.778c0.103-1.661-0.52-2.182-1.249-2.391
				c-8.314-0.831-16.524-2.701-24.631-5.194c-8.731-3.433-17.563-8.418-26.398-14.136c-4.055-1.972-3.536-11.326-3.432-14.969
				c0.729-6.647,5.611-22.136,13.511-22.863c9.458-0.515,13.927,4.471,23.282,9.044c16.422,7.797,39.391,12.368,56.435,4.366
				c8.211-4.991,10.185-11.747,6.34-20.266c-6.653-13.931-38.558-25.364-53.007-32.325c-34.606-14.76-53.938-44.688-47.806-80.336
				c4.573-26.298,29.204-46.252,54.979-49.887v-12.579c-31.802,9.25-56.019,27.542-77.739,48.848
				c-31.492,30.764-49.991,69.635-51.552,119.313c2.496,60.8,34.092,87.721,67.141,107.882
				c-56.745-21.931-89.172-79.925-76.18-148.001c15.901-83.351,94.057-151.53,177.72-157.04c3.327,1.976,3.535,2.288,5.304,6.758
				c-0.73,10.496-1.355,20.99-2.081,31.49c16.524,3.328,32.116,8.001,44.692,18.708c0.416,24.11-17.67,34.193-24.53,30.554
				c0.311-1.141-27.23-8.729-32.945-10.078c-6.962-1.145-13.825-0.729-20.685,2.388c-8.103,3.846-11.951,9.559-8.103,18.5
				c3.324,6.652,8.833,11.017,14.857,14.758c17.36,9.354,34.715,18.811,52.074,28.162c14.963,8.42,25.668,19.336,32.528,32.534
				c4.988,13.096,6.13,26.398,3.223,39.908c-3.43,11.02-7.588,20.581-13.927,26.608c-5.3,6.026-11.123,10.707-17.355,14.033
				c-8.838,4.676-17.67,8.832-26.816,10.287c-0.312,5.612-0.519,11.119-0.831,16.734c0.728,0.415,1.453,0.206,2.285,0
				c19.643-6.337,36.897-17.464,53.734-29.622c21.827-19.226,42.196-39.39,52.902-65.476c7.274-14.553,12.885-30.662,15.588-49.577
				C467.753,308.642,448.424,258.755,391.261,232.563"/>
			<linearGradient id="SVGID_2_" gradientUnits="userSpaceOnUse" x1="256.0088" y1="273.0396" x2="426.161" y2="594.3998">
				<stop  offset="0" style="stop-color:#DEB427"/>
				<stop  offset="0.0408" style="stop-color:#E5C95A"/>
				<stop  offset="0.0814" style="stop-color:#EADA85"/>
				<stop  offset="0.1176" style="stop-color:#EFE7A4"/>
				<stop  offset="0.1483" style="stop-color:#F1EEB7"/>
				<stop  offset="0.1697" style="stop-color:#F2F1BE"/>
				<stop  offset="0.2082" style="stop-color:#EBDA7D"/>
				<stop  offset="0.2478" style="stop-color:#E4C43F"/>
				<stop  offset="0.2667" style="stop-color:#E1BB27"/>
				<stop  offset="0.3027" style="stop-color:#DA9B23"/>
				<stop  offset="0.339" style="stop-color:#D58320"/>
				<stop  offset="0.3724" style="stop-color:#D2741E"/>
				<stop  offset="0.4" style="stop-color:#D16F1D"/>
			</linearGradient>
			<path fill-rule="evenodd" clip-rule="evenodd" fill="url(#SVGID_2_)" d="M346.694,203.084
				c98.579,0,163.375,79.272,144.707,177.21c-18.667,97.941-113.817,177.213-212.397,177.213
				c-98.69,0-163.483-79.272-144.818-177.213C152.96,282.356,248.002,203.084,346.694,203.084 M393.783,226.038
				c61.041,21.35,96.44,82.386,82.708,154.256c-15.984,83.78-93.004,152.76-176.677,161.55c-6.649-0.213-6.757-3.966-6.972-9.546
				c0.323-11.585,0.751-23.273,1.074-34.861c0.107-1.72-0.538-2.255-1.289-2.469c-8.582-0.857-17.056-2.79-25.424-5.363
				c-9.01-3.541-18.127-8.688-27.245-14.592c-4.186-2.033-3.649-11.688-3.541-15.445c0.75-6.865,5.791-22.85,13.943-23.599
				c9.762-0.536,14.375,4.612,24.031,9.333c16.95,8.047,40.656,12.764,58.248,4.506c8.474-5.15,10.513-12.124,6.544-20.918
				c-6.866-14.376-39.796-26.178-54.709-33.362c-35.72-15.234-55.673-46.125-49.342-82.919c4.719-27.143,30.142-47.738,56.746-51.49
				v-12.983c-32.826,9.55-57.821,28.427-80.239,50.419c-32.503,31.751-51.598,71.872-53.208,123.147
				c2.576,62.753,35.186,90.539,69.297,111.352c-58.569-22.641-92.038-82.497-78.628-152.76
				c16.413-86.03,97.079-156.399,183.432-162.087c3.434,2.039,3.648,2.362,5.475,6.975c-0.755,10.834-1.4,21.665-2.149,32.503
				c17.056,3.434,33.148,8.257,46.129,19.308c0.429,24.886-18.238,35.291-25.318,31.537c0.321-1.177-28.106-9.009-34.003-10.404
				c-7.187-1.18-14.269-0.75-21.349,2.467c-8.364,3.968-12.335,9.867-8.364,19.095c3.431,6.866,9.117,11.371,15.336,15.231
				c17.917,9.655,35.83,19.416,53.747,29.068c15.444,8.691,26.494,19.957,33.574,33.579c5.147,13.518,6.327,27.247,3.327,41.19
				c-3.541,11.375-7.832,21.243-14.375,27.464c-5.47,6.22-11.479,11.051-17.913,14.483c-9.123,4.828-18.238,9.116-27.678,10.618
				c-0.321,5.794-0.537,11.479-0.857,17.273c0.751,0.431,1.5,0.213,2.358,0c20.274-6.543,38.083-18.022,55.461-30.573
				c22.528-19.847,43.551-40.659,54.602-67.582c7.509-15.021,13.3-31.646,16.089-51.171
				C472.734,304.562,452.782,253.074,393.783,226.038"/>
		</g>
	</g>
</g>
</svg>

