<?xml version="1.0" encoding="utf-8"?>
<!-- Generator: Adobe Illustrator 21.0.0, SVG Export Plug-In . SVG Version: 6.00 Build 0)  -->
<svg version="1.1" id="Capa_1" xmlns="http://www.w3.org/2000/svg" xmlns:xlink="http://www.w3.org/1999/xlink" x="0px" y="0px"
	 viewBox="0 0 846 480" style="enable-background:new 0 0 846 480;" xml:space="preserve">
<style type="text/css">
	.st0{fill:#E53E14;}
	.st1{fill:#1D1E1C;}
</style>
<g>
	<path class="st0" d="M318.4,63c45.2-24.6,98.7-32.4,149.4-24.9c26.7,3.9,52.8,15,71.6,34.6c19.6,26.4,23.2,63.4,10.2,93.3
		c-57-0.1-114.1-0.1-171.1,0c-2.9,0-5.9-0.1-8.8-0.2c2.3-13.2,4.6-26.5,6.8-39.7c32.1-0.2,64.2,0.1,96.3-0.2
		c0.4-9.3-2.7-19-10.1-24.9c-9-9.1-22.3-11.9-34.5-13.3c-22.2-2.2-46.1,0.5-64.9,13.3c-19.3,12.9-30,35.6-32.7,58.2
		c-1.4,14.2,2.2,30.9,15,38.9c9.8,8.8,23.5,11,36.2,12.2c32,1.5,63.9-3.7,94.9-10.9c66.6-16.3,130.8-41.5,192.7-70.7
		c-6.9-0.5-13.9-0.1-20.8-0.3c37.7-15.2,75.6-30.1,113.6-44.4c-10.6,7.6-22.5,13.2-32.5,21.5c-43.5,25.3-85.4,53.4-128.5,79.3
		c-42.5,26.2-86.5,50.9-134.3,66c-56.6,17.9-120.7,24.1-176.1-0.9c-9.5-5.9-17.9-13.6-25.4-22c-17.9-21.6-20.9-51.7-15.6-78.4
		C256.5,111.5,285.2,80.9,318.4,63z"/>
	<path class="st0" d="M94.6,323.1c16.9-30,53.7-44.7,87.1-42.6c19.7,1,40.3,10.5,49,29.1c3,10.1,2.4,21-1.6,30.8
		c-34.4,0.4-68.8-0.2-103.1,0.3c1.2,4.7,3,9.3,6.5,12.8c14.9,13.4,39,8.4,52.7-4.4c0.5-0.4,1.6-1.1,2.1-1.4c1.5,0.5,3.1,1,4.6,1.5
		c7.7,3.7,15.7,6.7,23.5,10.5c-1.4,1.4-2.8,2.8-4.3,4c-29.8,24.8-76.8,32.3-109.6,8.9C88.7,359.5,85.2,338.9,94.6,323.1z
		 M132.4,322.3c4.9,0,9.8,0.4,14.6-0.2c16.1,0.5,32.1,0.3,48.2,0.1c-0.8-0.9-1.7-1.8-2.5-2.6c-0.5-5.7-5.9-8.9-10.5-11.3
		C165,301,143.8,308.1,132.4,322.3z"/>
	<path class="st0" d="M291.5,293.1c18.9-8.9,40.3-15.5,61.3-10.7c10,2.1,19.7,8.2,23.5,18c-3.3,27.3-12.2,53.6-18.2,80.4
		c-10.2,0.2-20.5,0.1-30.8,0.1c-2.6,0-5.1-0.1-7.7-0.2c4-16.6,8-33.1,12-49.7c1.2-5.3,3.3-10.7,2.3-16.2
		c-2.4-10.1-14.2-12.2-23-11.4c-14.9,0.3-29.6,9.5-34.7,23.8c-5.6,17.4-9,35.5-14.1,53c-10,1.5-20.4,0.2-30.5,0.6
		c-2.6,0-5.3,0-7.9,0c2.6-10.7,5.5-21.4,8-32.1c2-8,4.2-15.9,6-24c3.6-13.5,6.9-27.1,10.3-40.7c12.4-0.1,24.7-0.1,37.1,0
		c-0.7,2.8-1.4,5.6-2,8.4c-0.4,1.8-0.8,3.6-1.3,5.4C285.2,296.4,288.4,294.7,291.5,293.1z"/>
	<path class="st0" d="M563.8,322.2c22.8-35.1,72.7-51.1,110.9-32.9c0.4-1,1.1-3,1.5-4c11.7,0,23.4,0,35.1,0
		c-0.7,2.8-1.4,5.7-2.1,8.5c-7.6,29-15.1,58.1-22.5,87.2c-11.9,0.2-23.9,0-35.8,0.1c0-1.1-0.1-3.4-0.2-4.6
		c-26.1,10.2-59,11.6-81.4-7.7c-6.3-7-10-15.8-11-25.1C559.2,336.3,561.1,329.1,563.8,322.2z M599.8,326.8c-5,8.1-4.8,19.7,2.7,26.2
		c14.5,13.1,37.8,8.4,51.8-3.2c8.2-6.7,15.7-18.9,10.1-29.3c-2.2-7.6-10-11.8-17.2-13.6C629.4,303.2,609.4,311.2,599.8,326.8z"/>
	<path class="st0" d="M376.5,283.9c14.7,0.1,29.3-0.2,44,0.2c0.6,2.8,1.2,5.5,1.8,8.3c3.8,17.5,7.8,35,11.7,52.5c1-1.2,2-2.5,3-3.7
		c13.9-18.5,27.5-37.2,41.3-55.8c1.2-2,3.9-1.3,5.8-1.5c12.9,0.1,25.9-0.1,38.8,0.1c-2.1,2.9-4.3,5.7-6.5,8.4
		c-23.7,29.4-47.5,58.9-71.1,88.5c-12.2,0.3-24.4,0.1-36.6,0.1c-0.8,0-2.4,0-3.2,0C395.8,348.6,386.1,316.3,376.5,283.9z"/>
	<path class="st0" d="M524.8,292.4c0.7-2.9,1.6-5.8,2.5-8.6c12.7,0.2,25.4,0,38.2,0.1c-0.5,2-1,4.1-1.6,6.1c-0.5,2-1.1,3.9-1.7,5.9
		c-9.8,2.7-19.8,5-29.6,7.7c-3.8,1-7.7,1.9-11.5,2.9c0.3-1.5,1-4.4,1.4-5.8C523.3,297.9,524,295.2,524.8,292.4z"/>
	<path class="st0" d="M531,310.2c9.8-2.2,19.4-5.7,29.4-6.8c-0.8,3.3-1.7,6.6-2.5,9.9c-5.8,22.5-11.4,45.1-17.1,67.6
		c-10.5,0.2-21,0.1-31.5,0.1c-2.6,0-5.2,0-7.8-0.1c5.8-22.3,11.4-44.6,17.6-66.8C522.2,311.5,527.2,311.6,531,310.2z"/>
</g>
<path class="st1" d="M539.4,72.8C556.6,87.1,565,110,564.9,132c-0.2,13.7-0.9,28.1-7.3,40.6c-59.9,0-119.9,0-179.8,0
	c0.3-2.1,0.6-4.3,0.9-6.4c57-0.2,114.1-0.1,171.1,0C562.6,136.1,559.1,99.1,539.4,72.8z"/>
<path class="st1" d="M363.3,101.1c18.9-12.8,42.7-15.5,64.9-13.3c12.3,1.4,25.5,4.2,34.5,13.3c-27.5-11-60.4-10.5-86.7,3.4
	c-22.6,12.4-35.5,37.8-37.7,62.8c-1.1,10.8,1.8,21.6,7.3,30.9c-12.8-8.1-16.4-24.8-15-38.9C333.3,136.7,344,114,363.3,101.1z"/>
<path class="st1" d="M729.8,105.7c13.5-4.3,26.3-10.6,39.8-14.9c-41.1,26.7-82.9,52.3-124.4,78.4c-38.9,23.9-77.3,48.8-118.8,68
	c-59.4,27.6-126.9,44.6-192.2,31.3c-15.3-3.6-31-8.6-43.5-18.4c55.4,25.1,119.6,18.8,176.1,0.9c47.8-15.1,91.8-39.8,134.3-66
	C644.4,159.1,686.2,130.9,729.8,105.7z"/>
<path class="st1" d="M562.2,295.9c0.6-1.9,1.1-3.9,1.7-5.9c3,0,6,0,9,0c-0.9,3.9-1.9,7.8-3.1,11.7c-3.1,0.8-6.1,1.5-9.3,1.8
	c-10,1.1-19.6,4.6-29.4,6.8c0.5-2.2,1-4.5,1.5-6.7C542.4,300.9,552.3,298.5,562.2,295.9z"/>
<path class="st1" d="M282.1,298c0.4-1.8,0.8-3.6,1.3-5.4c2.7,0.1,5.5,0.2,8.2,0.5C288.4,294.7,285.2,296.4,282.1,298z"/>
<path class="st1" d="M422.3,292.3c1,0.2,2.9,0.6,3.8,0.8c3.9,15.9,7.1,32,10.8,47.9c-1,1.2-2,2.5-3,3.7
	C430.1,327.4,426.2,309.9,422.3,292.3z"/>
<path class="st1" d="M445.3,380.9c23.6-29.5,47.3-59,71.1-88.5c2.8,0,5.5,0,8.3,0c-0.7,2.7-1.5,5.4-2.3,8.1
	c-23.9,29.6-47.8,59.2-71.5,88.9c-13.3,0-26.6,0.2-40-0.1c-0.8-2.8-1.5-5.6-2.3-8.4C420.9,380.9,433.1,381.2,445.3,380.9z"/>
<path class="st1" d="M709.1,293.8c2.6,0,5.2,0,7.8,0c-8.2,31.9-16.5,63.7-24.7,95.6c-12.1,0.1-24.3,0-36.4,0.1
	c0.4-1.6,0.8-3.2,1.2-4.8c-20.4,8.2-43.9,10.9-64.8,3.1c-9.3-3.7-18.4-9.7-23-18.9c22.4,19.3,55.3,17.9,81.4,7.7
	c0,1.1,0.1,3.4,0.2,4.6c11.9-0.2,23.9,0.1,35.8-0.1C694,351.9,701.5,322.8,709.1,293.8z"/>
<path class="st1" d="M376.3,300.5c4.6,4,6.7,10.4,5,16.4c-5.3,24.3-11.6,48.4-17.5,72.6c-12.8,0.1-25.7,0-38.5,0
	c0.7-2.8,1.3-5.7,2-8.5c10.3,0,20.5,0.1,30.8-0.1C364.1,354.1,373,327.8,376.3,300.5z"/>
<path class="st1" d="M276.3,327.4c5.1-14.3,19.7-23.6,34.7-23.8c8.8-0.8,20.6,1.3,23,11.4c-19.1-8.1-44.8,0.6-52,20.9
	c-5.4,17.6-9.4,35.6-13.9,53.5c-12.9,0.2-25.7,0.1-38.6,0.1c0.7-2.8,1.5-5.7,2.3-8.5c10.1-0.4,20.5,1,30.5-0.6
	C267.3,362.9,270.7,344.8,276.3,327.4z"/>
<path class="st1" d="M132.4,322.3c11.5-14.2,32.6-21.3,49.8-13.9c4.6,2.4,10,5.5,10.5,11.3c-13.8-9.5-32.2-6-45.7,2.5
	C142.1,322.8,137.2,322.3,132.4,322.3z"/>
<path class="st1" d="M599.8,326.8c9.6-15.6,29.6-23.5,47.4-19.9c7.2,1.8,14.9,6,17.2,13.6c-14.9-10-35.5-6.5-49.2,4
	c-8.7,6.5-15.1,17.4-12.8,28.5C595,346.4,594.8,334.8,599.8,326.8z"/>
<path class="st1" d="M230.6,309.5c3.9,4.3,5.8,9.9,7.3,15.4c-1.8,8-4,16-6,24c-13.4,0.1-26.8,0-40.2,0.1c-1.6-0.5-3.1-1-4.6-1.5
	c-0.5,0.4-1.6,1.1-2.1,1.4c-17.7,0-35.4,0.1-53,0c0.1,1.5,0.2,3,0.4,4.4c-3.5-3.5-5.3-8.1-6.5-12.8c34.4-0.5,68.8,0.1,103.1-0.3
	C233,330.5,233.6,319.7,230.6,309.5z"/>
<path class="st1" d="M558,313.3c2.7-0.7,5.5-1.3,8.2-2c-0.8,3.6-1.6,7.2-2.5,10.8c-2.7,6.9-4.6,14.1-5.5,21.5
	c-4.1,15.2-7.8,30.5-11.7,45.8c-13.1,0-26.2,0-39.3,0c0.7-2.8,1.5-5.6,2.2-8.4c10.5,0,21,0.1,31.5-0.1
	C546.6,358.4,552.2,335.8,558,313.3z"/>
<path class="st1" d="M101.4,372.4c32.8,23.4,79.7,15.9,109.6-8.9c3.4,1.5,6.8,2.9,10.2,4.5c-20.6,19.8-50.3,29.4-78.6,26.5
	C126.9,392.6,109.8,386.4,101.4,372.4z"/>
</svg>

