<?xml version="1.0" encoding="utf-8"?>
<!-- Generator: Adobe Illustrator 21.0.0, SVG Export Plug-In . SVG Version: 6.00 Build 0)  -->
<svg version="1.1" id="Capa_1" xmlns="http://www.w3.org/2000/svg" xmlns:xlink="http://www.w3.org/1999/xlink" x="0px" y="0px"
	 viewBox="0 0 828 288" style="enable-background:new 0 0 828 288;" xml:space="preserve">
<style type="text/css">
	.st0{fill:#FFFFFF;}
	.st1{fill:#E84E0E;}
	.st2{fill:none;stroke:#FFFFFF;stroke-linecap:round;stroke-linejoin:round;stroke-miterlimit:10;}
	.st3{fill:url(#SVGID_1_);stroke:#808080;stroke-miterlimit:10;}
	.st4{fill:#FFFFFF;stroke:#808080;stroke-miterlimit:10;}
	.st5{opacity:0.33;fill:url(#SVGID_2_);}
</style>
<g>
	<path d="M779,246H49c-6.6,0-12-5.4-12-12V58c0-6.6,5.4-12,12-12h730c6.6,0,12,5.4,12,12v176C791,240.6,785.6,246,779,246z"/>
	<g>
		<path class="st0" d="M111.3,191.8h-3.8v-1.4h9.3v1.4H113v11.1h-1.6V191.8z"/>
		<path class="st0" d="M135.8,197h-4.9v4.5h5.4v1.4h-7v-12.5h6.8v1.4h-5.1v4h4.9V197z"/>
		<path class="st0" d="M164.7,190.4h1.6v11.2h5.3v1.4h-7V190.4z"/>
		<path class="st0" d="M186.6,199l-1.3,3.9h-1.7l4.3-12.5h1.9l4.3,12.5h-1.7L191,199H186.6z M190.7,197.7l-1.2-3.6
			c-0.3-0.8-0.5-1.6-0.6-2.3h0c-0.2,0.7-0.4,1.5-0.6,2.3l-1.2,3.6H190.7z"/>
		<path class="st0" d="M222.2,190.5c0.8-0.1,1.8-0.2,3.1-0.2c1.6,0,2.8,0.4,3.5,1c0.7,0.6,1.1,1.5,1.1,2.6c0,1.1-0.3,2-1,2.7
			c-0.9,0.9-2.2,1.4-3.8,1.4c-0.5,0-0.9,0-1.3-0.1v5h-1.6V190.5z M223.8,196.6c0.4,0.1,0.8,0.1,1.3,0.1c2,0,3.1-0.9,3.1-2.7
			c0-1.7-1.2-2.5-3-2.5c-0.7,0-1.2,0.1-1.5,0.1V196.6z"/>
		<path class="st0" d="M253.9,196.5c0,4.3-2.6,6.6-5.8,6.6c-3.3,0-5.6-2.6-5.6-6.4c0-4,2.5-6.6,5.8-6.6
			C251.7,190.2,253.9,192.8,253.9,196.5z M244.2,196.7c0,2.7,1.4,5.1,4,5.1c2.6,0,4-2.4,4-5.2c0-2.5-1.3-5.1-4-5.1
			C245.5,191.5,244.2,194,244.2,196.7z"/>
		<path class="st0" d="M267.1,202.9v-12.5h1.8l4,6.3c0.9,1.5,1.7,2.8,2.2,4.1l0,0c-0.1-1.7-0.2-3.2-0.2-5.1v-5.2h1.5v12.5h-1.6
			l-4-6.4c-0.9-1.4-1.7-2.8-2.3-4.2l-0.1,0c0.1,1.6,0.1,3.1,0.1,5.2v5.3H267.1z"/>
		<path class="st0" d="M297,197h-4.9v4.5h5.4v1.4h-7v-12.5h6.8v1.4h-5.1v4h4.9V197z"/>
		<path class="st0" d="M321.3,197.4c-0.1-1.7-0.2-3.8-0.2-5.4h-0.1c-0.4,1.5-0.9,3-1.6,4.8l-2.2,6.1h-1.2l-2-6
			c-0.6-1.8-1.1-3.4-1.4-4.9h0c0,1.6-0.1,3.7-0.2,5.5l-0.3,5.4h-1.5l0.9-12.5h2.1l2.1,6.1c0.5,1.5,0.9,2.9,1.3,4.2h0.1
			c0.3-1.3,0.8-2.6,1.3-4.2l2.2-6.1h2.1l0.8,12.5h-1.6L321.3,197.4z"/>
		<path class="st0" d="M347.5,196.5c0,4.3-2.6,6.6-5.8,6.6c-3.3,0-5.6-2.6-5.6-6.4c0-4,2.5-6.6,5.8-6.6
			C345.3,190.2,347.5,192.8,347.5,196.5z M337.8,196.7c0,2.7,1.4,5.1,4,5.1c2.6,0,4-2.4,4-5.2c0-2.5-1.3-5.1-4-5.1
			C339.2,191.5,337.8,194,337.8,196.7z"/>
		<path class="st0" d="M360.6,200.9c0.7,0.4,1.8,0.8,2.9,0.8c1.7,0,2.6-0.9,2.6-2.1c0-1.2-0.7-1.8-2.4-2.5c-2-0.7-3.3-1.8-3.3-3.5
			c0-1.9,1.6-3.4,4-3.4c1.3,0,2.2,0.3,2.8,0.6l-0.4,1.3c-0.4-0.2-1.2-0.6-2.4-0.6c-1.7,0-2.4,1-2.4,1.9c0,1.2,0.8,1.7,2.5,2.4
			c2.1,0.8,3.2,1.8,3.2,3.7c0,1.9-1.4,3.6-4.4,3.6c-1.2,0-2.5-0.4-3.2-0.8L360.6,200.9z"/>
		<path class="st0" d="M396.2,190.6c0.8-0.2,2-0.3,3.1-0.3c1.7,0,2.8,0.3,3.6,1c0.6,0.6,1,1.4,1,2.4c0,1.7-1,2.7-2.4,3.2v0.1
			c1,0.3,1.5,1.2,1.8,2.5c0.4,1.7,0.7,3,1,3.4h-1.7c-0.2-0.4-0.5-1.4-0.8-3c-0.4-1.7-1-2.4-2.5-2.4h-1.5v5.4h-1.6V190.6z
			 M397.8,196.3h1.7c1.7,0,2.8-0.9,2.8-2.4c0-1.6-1.2-2.3-2.9-2.3c-0.8,0-1.3,0.1-1.6,0.1V196.3z"/>
		<path class="st0" d="M423.8,197h-4.9v4.5h5.4v1.4h-7v-12.5h6.8v1.4h-5.1v4h4.9V197z"/>
		<path class="st0" d="M437.6,190.4h6.7v1.4h-5.1v4.2h4.7v1.3h-4.7v5.7h-1.6V190.4z"/>
		<path class="st0" d="M458.3,199l-1.3,3.9h-1.7l4.3-12.5h2l4.3,12.5h-1.7l-1.3-3.9H458.3z M462.4,197.7l-1.2-3.6
			c-0.3-0.8-0.5-1.6-0.6-2.3h0c-0.2,0.7-0.4,1.5-0.6,2.3l-1.2,3.6H462.4z M463.3,187.6l-2.4,2.2h-1.3l1.7-2.2H463.3z"/>
		<path class="st0" d="M487.3,202.5c-0.6,0.3-1.8,0.6-3.3,0.6c-3.5,0-6.2-2.2-6.2-6.3c0-3.9,2.7-6.6,6.5-6.6c1.6,0,2.5,0.3,3,0.6
			l-0.4,1.3c-0.6-0.3-1.5-0.5-2.5-0.5c-2.9,0-4.9,1.9-4.9,5.2c0,3.1,1.8,5,4.8,5c1,0,2-0.2,2.6-0.5L487.3,202.5z"/>
		<path class="st0" d="M502.1,190.4v12.5h-1.6v-12.5H502.1z"/>
		<path class="st0" d="M516,190.4h1.6v11.2h5.3v1.4h-7V190.4z"/>
	</g>
	<path class="st1" d="M218.8,104.7c0,0.9,0,1.6,0,2.5c3,0,5.9,0,8.8,0c-0.9,3.9-3.2,5.8-6.7,5.8c-1.4,0-2.8,0-4.2,0
		c-2,0-2.2,0.2-3,2.9c5.8,0,11.6,0,18,0c-1.4,2.5-2.5,4.3-3.6,6.1c-0.3,0.4-1,0.8-1.5,0.8c-8.1,0-16.2,0-24.7,0
		c0.4-1,0.6-1.6,0.9-2.2c2.6-4.6,5.2-9.3,7.8-13.9c0.8-1.5,1.8-2.2,3.6-2C215.6,104.8,217.1,104.7,218.8,104.7z"/>
	<g>
		<path class="st0" d="M643.7,132.7c-0.5,0.4-0.7,0.5-0.9,0.7c-12.1,20.5-24.2,40.9-36.2,61.4c-0.7,1.2-0.9,3.5-0.2,4.7
			c1.5,2.8,4.3,4,7.4,4.2c2.8,0.3,4.6-1.2,6-3.5c3.5-5.6,6.9-11.2,10.5-16.6c0.6-1,1.9-1.9,3-2.1c9.1-1.4,18.3-2.7,27.5-4
			c5.4-0.8,9-3.9,10.8-8.8c1.8-4.8,1.7-9.9-2.2-13.5C661.1,147.5,652.4,140.3,643.7,132.7z M639.1,168.5c3.1-5,5.8-9.3,9-14.4
			c3.4,3.9,6.6,7.5,9.8,11.2C652.1,166.3,646,167.3,639.1,168.5z"/>
		<path class="st0" d="M622.3,159.8c1.6-2.7,3.2-5.4,4.8-8.1c1.4-2.4,2.7-4.8,4-7.2c-1.5-1.1-2.6-1.9-4-2.9
			c2.7-4.9,5.5-9.7,7.8-14.6c1.9-4,4.3-6.5,9-6.5c1.8,0,3.6-0.6,5.4-1.1c3.5-1,7.1-1.7,10.4-3.2c3-1.4,3.8-5.5,2.4-8.7
			c-1.5-3.4-4.9-5.5-8.1-4.9c-7.4,1.6-14.9,3.2-22.3,4.7c-1.8,0.4-2.9,1.2-3.8,2.7c-4.3,7.3-8.7,14.6-12.9,21.9
			c-0.8,1.4-1.6,1.6-2.9,0.7c-1.8-1.2-3.7-2.2-5.7-3.4c-3.3,5.9-6.5,11.4-9.6,16.9c-0.8,1.3,0,1.8,1,2.4c7,4.1,14,8.2,21,12.4
			C620.6,161.8,621.5,161.3,622.3,159.8z"/>
		<path class="st0" d="M698.7,102.9c-3.4-1.8-6.3-1.1-8.4,2.1c-1.3,2-2.7,3.9-3.6,6.1c-1.8,4.2-4.8,6.5-9.5,6.1
			c-5.4,0.6-4.2,0.2-5.8,1c-2,1.1-2.2,2.1-4.5,5.8c-1.2,2.8-3,5.4-4.5,8.1c0.4,0.3,0.4,0.4,0.5,0.4c9.4-0.7,18.7-1.3,28.1-2
			c0.7-0.1,1.5-0.6,1.8-1.1c3.1-6,6.3-12.1,9.1-18.2C703.4,107.9,701.9,104.6,698.7,102.9z"/>
		<path class="st0" d="M678.8,99.4c5.1,0,8.9-3.7,8.8-8.6c-0.1-5-3.8-8.7-8.8-8.7c-4.9,0-9,3.8-9,8.6
			C669.7,95.7,673.5,99.3,678.8,99.4z"/>
	</g>
	<path class="st1" d="M241.1,97.2c-0.4,4-2.7,6.3-6.5,6.3c-6.7,0-13.4-0.1-20.2-0.2c-0.5,0-1-0.1-1.7-0.3c1-1.8,1.8-3.4,2.8-4.9
		c0.4-0.6,1.4-1.1,2.2-1.2c7.6-0.1,15.2,0,22.8,0C240.6,97,240.9,97.1,241.1,97.2z"/>
	<g>
		<path class="st1" d="M265.8,105.6c-0.1,2.6-3.5,6.8-6.3,7.6c1.6,1.3,0.9,2.6,0.2,3.9c-0.9,1.6-1.8,3.3-2.8,4.9
			c-0.3,0.4-0.8,0.8-1.3,0.8c-1.8,0.2-3.6,0.2-5.4,0.2c-1.2,0-1.4-0.2-0.7-1.3c0.9-1.6,1.8-3.3,2.9-5.2c-1.5,0-2.7,0-3.9,0
			c-1.8,0-3.6,0.1-5.4,0c-0.9,0-1.4,0.4-1.8,1.1c-0.8,1.5-1.6,2.9-2.6,4.3c-0.3,0.5-1.1,0.9-1.6,0.9c-2,0.1-3.9,0-6.2,0
			c0.6-1.1,0.9-1.9,1.4-2.6c2.7-4.8,5.4-9.7,8.2-14.5c0.2-0.4,0.6-0.9,1-0.9c2.3-0.1,4.5,0,7.1,0c-1,1.8-1.9,3.3-2.8,4.9
			c0.2,0.1,0.3,0.3,0.5,0.3c2.4,0,4.8-0.1,7.2-0.2c2.2-0.1,3.9-1,4.6-3.2c0.3-1,0.9-1.2,1.9-1.1
			C261.9,105.6,263.9,105.6,265.8,105.6z"/>
		<path class="st1" d="M241.7,103.5c1.3-2.2,2.4-4.1,3.5-5.9c0.1-0.2,0.7-0.3,1.1-0.3c5.7,0,11.4,0,17,0c0.9,0,1.8,0.2,2.6,0.6
			c1.5,0.6,2.2,1.8,2.2,3.3c-0.1,1.8-0.6,2.3-2.4,2.3c-7.5,0-15,0-22.5,0C242.9,103.5,242.5,103.5,241.7,103.5z"/>
		<path class="st1" d="M165.6,102.8c1-1.8,1.9-3.4,2.9-4.9c0.2-0.3,0.8-0.4,1.2-0.5c11.1,0,5.4,0,16.5,0c0.9,0,1.9,0.3,2.8,0.6
			c1.5,0.5,2.1,2.3,1.6,3.7c-0.3,1-0.9,1.2-1.9,1.2c-8,0-3.3,0-11.3,0c-4.9,0-5.7,0-10.5,0C166.5,102.8,166.2,102.8,165.6,102.8z"/>
		<path class="st1" d="M154.2,123c0.9-1.6,1.6-3,2.4-4.4c2.5-4.4,5-8.7,7.5-13.1c0.4-0.7,0.9-1,1.7-1c2,0.1,4,0,6.2,0
			c-0.3,0.7-0.5,1.2-0.7,1.6c-3,5.3-6.1,10.6-9.1,15.9c-0.4,0.8-0.9,1.1-1.9,1C158.4,122.9,156.4,123,154.2,123z"/>
		<path class="st1" d="M171.6,123c1-1.7,1.7-3.1,2.5-4.4c2.5-4.5,4.9-8.9,7.4-13.4c0.2-0.3,0.7-0.7,1-0.7c2.1-0.1,4.3,0,6.7,0
			c-0.2,0.7-0.3,1.2-0.6,1.6c-2.9,5.3-5.9,10.5-8.9,15.8c-0.4,0.8-1,1.1-1.9,1.1C175.9,122.9,173.9,123,171.6,123z"/>
		<path class="st1" d="M161.1,104.5c-0.5,0.9-0.8,1.6-1.2,2.3c-2.8,4.9-5.6,9.8-8.3,14.7c-0.6,1.1-1.3,1.6-2.6,1.5
			c-1.8-0.1-3.6,0-5.7,0c0.4-0.8,0.6-1.3,0.9-1.8c2.9-5.2,5.8-10.3,8.6-15.5c0.5-0.9,1.1-1.3,2.2-1.2
			C156.9,104.6,158.8,104.5,161.1,104.5z"/>
		<path class="st1" d="M154.5,102.9c1.1-1.9,2-3.5,2.9-5c0.1-0.2,0.4-0.5,0.6-0.5c2.3,0,4.6,0,7.3,0c-1.1,1.9-2,3.6-3,5.2
			c-0.1,0.2-0.6,0.3-0.8,0.3C159.2,102.9,157,102.9,154.5,102.9z"/>
	</g>
	<g>
		<path class="st0" d="M169.2,160.7c5.6-1.7,12.5-10.2,12.7-15.5c-4,0-8,0.1-12,0c-1.9-0.1-3.1,0.3-3.8,2.3
			c-1.5,4.4-4.9,6.4-9.4,6.6c-4.9,0.2-9.8,0.3-14.6,0.3c-0.3,0-0.6-0.3-1-0.6c1.8-3.2,3.6-6.3,5.6-9.9c-5.3,0-9.9-0.1-14.5,0.1
			c-0.7,0-1.5,1-2,1.8c-5.6,9.8-11.1,19.6-16.7,29.4c-0.9,1.5-1.6,3.1-2.7,5.3c4.6,0,8.6,0.1,12.6-0.1c1.2-0.1,2.6-0.9,3.3-1.8
			c1.9-2.8,3.6-5.8,5.2-8.8c0.8-1.5,1.8-2.3,3.7-2.2c3.7,0.1,7.3,0,11,0c2.5,0,5,0,8,0c-2.2,3.9-4,7.2-5.9,10.5
			c-1.3,2.3-1.1,2.8,1.5,2.7c3.7-0.1,7.3-0.1,11-0.4c0.9-0.1,2.1-0.9,2.6-1.7c2-3.3,3.8-6.7,5.8-10
			C171.1,166,172.5,163.3,169.2,160.7z"/>
		<path class="st0" d="M236,145.2c-3.4,0.1-6.8,0.1-10.2,0c-1.6-0.1-2.1,0.5-2.8,1.9c-1.5,2.9-2.9,6.3-5.3,8.3
			c-1.5,1.3-4.8,0.4-7.3,0.5c-0.5,0-1,0-1.6,0c-3.6,0-7.3,0-10.9,0c-0.1-0.2-0.3-0.5-0.4-0.7c2.3-3.3,4.6-6.5,7-10
			c-4.5,0-8.8,0.1-13.2,0c-1.6,0-2.5,0.6-3.3,2c-4.9,8.7-10,17.4-15,26.1c-1.2,2.1-2.4,4.3-3.9,7.1c4.5,0,8.3,0.1,12.1-0.1
			c1.1-0.1,2.6-0.9,3.3-1.9c1.8-2.6,3.2-5.4,4.7-8.2c0.7-1.4,1.7-2,3.3-1.9c4.4,0.1,8.7,0.1,13.1,0.1c1.5,0,3,0,5.1,0
			c-2.2,4.1-4.1,7.8-6.3,12c4,0,7.3-0.2,10.6,0.1c2.4,0.2,3.9-0.6,5.1-2.7c5.7-10.1,11.5-20.2,17.3-30.2
			C238.3,145.9,238.1,145.2,236,145.2z"/>
		<path class="st0" d="M362.1,149.9c0.8-1.4,1.5-2.8,2.4-4.7c-5.1,0-9.6,0-14,0.1c-0.5,0-1.2,0.6-1.5,1.2c-2.5,4.4-4.7,8.9-7.3,13.3
			c-3,5.1-6.9,8.7-13.5,8.1c-2.9-0.3-5.8,0-8.7-0.1c-0.8,0-1.6-0.1-2.8-0.3c4.3-7.5,8.3-14.6,12.6-22.3c-4.4,0-8.1,0.2-11.7-0.1
			c-2.3-0.1-3.5,0.8-4.5,2.7c-5.2,9.3-10.5,18.5-15.8,27.8c-0.8,1.4-1.5,2.8-2.4,4.4c0.9,0.2,1.4,0.4,1.9,0.4
			c11.4,0,22.7,0.2,34.1-0.1c9.3-0.3,16.4-4.6,20.9-13C355.2,161.5,358.7,155.7,362.1,149.9z"/>
		<path class="st0" d="M576.9,145.2c-0.5,0-1.3,0.5-1.5,1c-2.6,5-5,10.1-7.8,15.1c-2.5,4.4-6.3,6.9-11.7,6.5c-2-0.1-4,0-6,0
			c-3.9-0.1-5.2-1.9-3.3-5.4c3.1-5.6,5.4-11.6,10.4-15.9c0.3-0.2,0.3-0.7,0.6-1.3c-5.1,0-10-0.1-14.8,0.1c-0.8,0-1.8,0.8-2.2,1.5
			c-4.3,7.4-8.7,14.8-12.6,22.4c-3.4,6.5-0.3,11.3,7.1,11.3c7.3,0,14.7,0.1,22,0c2.6-0.1,5.3-0.4,7.7-1.2
			c6.1-1.9,10.5-6.2,13.6-11.7c3.8-6.6,7.5-13.2,11.3-19.8c0.4-0.6,0.6-1.4,1-2.6C585.6,145.2,581.3,145.2,576.9,145.2z"/>
		<path class="st0" d="M423.6,151.4c-1.3-0.2-2.6-0.3-3.9-0.3c-6.4,0-12.8,0-19.1-0.1c-0.5,0-1.1-0.2-2-0.4c1.7-1.9,3.1-3.4,4.9-5.4
			c-4.6,0-8.6,0.2-12.6-0.1c-2.7-0.2-4.3,0.8-5.3,3.1c-0.3,0.6-0.7,1.2-1,1.8c-4,7.4-0.4,10.6,6.3,10.9c6.6,0.2,13.3,0.2,19.9,0.2
			c0.6,0,1.3,0.1,2.2,0.2c-2.4,3.9-5.6,5.9-9.6,6.1c-5.1,0.2-10.3,0.2-15.5,0c-12.7-0.4-10.2-0.7-17.3,8.2c-1.1,1.3-2,2.7-3.1,4.4
			c0.8,0.2,1.2,0.4,1.6,0.4c11.5,0,22.9,0,34.4-0.1c2,0,4-0.5,5.9-1.1c10-3,15-10.9,18.9-19.7C430,155.7,427.8,152.2,423.6,151.4z"
			/>
		<path class="st0" d="M291.3,146.5c0.1-0.3,0-0.7-0.1-1.2c-4.9,0-9.8,0-14.8,0c-1.6,7.4-5.6,10.6-12.4,10.4
			c-3.4-0.1-6.8,0-10.2-0.1c-0.7,0-1.5-0.1-2.5-0.2c1.9-3.4,3.6-6.5,5.6-10.2c-4.2,0-7.5,0.2-10.8-0.1c-2.6-0.2-4,0.8-5.2,2.9
			c-5.3,9.4-10.8,18.8-16.2,28.2c-0.7,1.2-1.4,2.3-2.1,3.5c0.6,0.3,0.8,0.6,1,0.6c3.9,0,7.9,0.2,11.8,0c0.8,0,1.9-0.9,2.4-1.7
			c1.9-3,3.5-6.1,5.3-9c0.4-0.6,1.2-1.5,1.8-1.5c5.2-0.1,10.3-0.1,15.5,0.1c5.8,0.3,11.4-0.3,16.5-3.3
			C284.2,160.9,287.7,153.7,291.3,146.5z"/>
		<path class="st0" d="M463.9,142.1c9.3,0,18.5,0.1,27.8,0.1c15.3,0,30.6,0,45.9,0c1.8,0,2.9-0.4,3.6-2.2c0.9-2.8-0.3-6.1-3.1-7.1
			c-1.7-0.6-3.5-1.1-5.3-1.1c-21.2-0.1-42.3-0.1-63.5,0c-0.8,0-1.9,0.3-2.2,0.9c-1.8,2.9-3.5,5.9-5.5,9.4
			C462.7,142,463.3,142.1,463.9,142.1z"/>
		<path class="st0" d="M136,141c15.2,0,30.4,0,45.6,0c3.6,0,4.7-1,4.9-4.7c0.2-3-1.4-5.6-4.4-6.7c-1.7-0.6-3.5-1.1-5.3-1.1
			c-11.5-0.1-23.1-0.1-34.6,0c-0.7,0-1.9,0.1-2.2,0.5c-2.3,3.7-4.5,7.6-7.1,12.1C134.5,141,135.3,141,136,141z"/>
		<path class="st0" d="M494.5,145.2c-1.9-0.1-2.8,0.7-3.7,2.2c-5.9,10.3-11.8,20.6-17.7,30.9c-0.3,0.5-0.4,1.2-0.6,2.1
			c4.1,0,7.7-0.1,11.4,0c1.8,0.1,2.9-0.4,3.8-2c5.5-9.7,11.1-19.4,16.7-29.1c0.7-1.3,1.4-2.6,2.2-4.1
			C502.2,145.2,498.4,145.3,494.5,145.2z"/>
		<path class="st0" d="M382.4,145.2c-4.4,0-8,0.1-11.7-0.1c-2-0.1-3.1,0.5-4.1,2.3c-5.4,9.9-10.9,19.7-16.4,29.5
			c-0.5,0.9-1,1.9-1.7,3.4c4,0,7.5-0.2,10.9,0.1c2.5,0.2,3.8-0.8,4.9-2.9c5.2-9.4,10.5-18.7,15.8-28
			C380.9,148.3,381.5,147,382.4,145.2z"/>
		<path class="st0" d="M454.8,145.2c-4.2,0-7.9,0.1-11.5,0c-2-0.1-3.1,0.5-4.1,2.3c-4,7.4-8.2,14.6-12.4,21.9c-1.9,3.4-3.7,6.8-6,11
			c4.3,0,7.8-0.2,11.4,0.1c2.2,0.1,3.4-0.7,4.4-2.5c5.4-9.5,10.7-19,16.1-28.5C453.4,148.3,453.9,147,454.8,145.2z"/>
		<path class="st0" d="M310,145.2c-4.3,0-8.1,0.1-11.8-0.1c-1.9-0.1-3,0.6-3.9,2.2c-5.3,9.6-10.7,19.2-16,28.8
			c-0.7,1.2-1.3,2.5-2.2,4.2c4.3,0,8.1-0.1,11.8,0c1.7,0.1,2.7-0.5,3.5-2c5-9,10.2-17.9,15.2-26.8
			C307.7,149.7,308.7,147.6,310,145.2z"/>
		<path class="st0" d="M461.9,145.2c-1.7-0.1-2.5,0.5-3.3,1.9c-4.7,8.4-9.5,16.7-14.3,25c-1.5,2.6-2.9,5.3-4.6,8.4
			c4.2,0,8-0.1,11.8,0.1c1.8,0.1,2.7-0.5,3.5-2c5.7-10.1,11.5-20.2,17.3-30.2c0.5-0.9,0.8-1.8,1.4-3.1
			C469.5,145.2,465.7,145.3,461.9,145.2z"/>
		<path class="st0" d="M319.5,142.1c7.4,0,14.9,0,22.3,0c0,0,0,0,0,0.1c7.3,0,14.5,0.1,21.8-0.1c1.1,0,2.8-0.6,3-1.3
			c0.8-2.2,1-4.6-0.9-6.6c-2.7-2.9-6.2-3-9.7-3c-10.3-0.1-20.6-0.1-31,0c-1.1,0-2.5,1-3.2,2c-1.4,2-2.4,4.2-3.6,6.4
			c-0.3,0.6-0.6,1.3-0.9,2C318,141.7,318.8,142.1,319.5,142.1z"/>
		<path class="st0" d="M538.4,145.2c-4.6,0-8.7-0.1-12.8,0.1c-0.7,0-1.6,0.7-1.9,1.3c-4.7,8.5-9.4,17-14.1,25.5
			c-1.4,2.6-2.9,5.1-4.7,8.4c4.5,0,8.2-0.1,11.9,0c1.7,0,2.7-0.5,3.6-2c5.6-10.1,11.3-20.1,16.9-30.2
			C537.8,147.4,538,146.5,538.4,145.2z"/>
		<path class="st0" d="M290.8,142.1c2.9,0,4.1-1.3,3.9-4.2c-0.3-3.4-3.8-6.4-7.7-6.5c-11.4-0.2-22.7-0.3-34.1-0.3
			c-0.8,0-2.1,0.4-2.5,1c-1.9,3-3.6,6.1-5.7,9.7c1.5,0.1,2.3,0.2,3.1,0.2C262.1,142.1,276.4,142.1,290.8,142.1z"/>
		<path class="st0" d="M391.4,142.1c15.1,0,30.3,0,45.4,0c0.7,0,1.7-0.3,2-0.8c1.8-3,3.5-6.2,5.4-9.7c-1-0.1-1.4-0.2-1.7-0.2
			c-11.4,0-22.7,0-34.1,0c-5.3,0-9.9,1.9-14,5.1c-1.7,1.3-3,3.1-4.8,5.1C390.8,142,391.1,142.1,391.4,142.1z"/>
		<path class="st0" d="M592.2,134.5c-1.8-2.2-4.1-3.1-6.9-3c-7.4,0.1-14.9-0.1-22.3,0.1c-2.7,0.1-5.6,0.6-8.1,1.5
			c-4.4,1.6-7.8,4.7-10.8,8.2c0.1,0.3,0.2,0.6,0.3,0.9c1.4,0,2.7,0,4.1,0c13.8,0,27.6,0,41.4,0c1,0,2.6-0.5,3-1.3
			C594,138.7,593.8,136.5,592.2,134.5z"/>
		<path class="st0" d="M238.5,142.1c0.8,0,2-0.9,2.3-1.7c1.2-2.9,0.1-6-2.7-7.4c-1.7-0.9-3.8-1.4-5.7-1.5c-7.6-0.2-15.2-0.2-22.8,0
			c-7.6,0.2-13.1,4.4-18,10c0.5,0.4,0.7,0.6,0.8,0.6C207.7,142.1,223.1,142.2,238.5,142.1z"/>
		<path class="st0" d="M455.7,142.1c0.5,0,1.1-0.3,1.3-0.6c1.9-3.1,3.7-6.2,5.8-9.8c-5.2,0-9.6,0-14,0c-0.4,0-1.1,0.3-1.3,0.7
			c-1.7,3-3.4,6-5.5,9.8C447.2,142.1,451.4,142.1,455.7,142.1z"/>
		<path class="st0" d="M383,142.1c0.6,0,1.4-0.2,1.6-0.6c1.9-3.1,3.7-6.2,5.8-9.8c-5.1,0-9.6,0-14,0c-0.4,0-0.9,0.5-1.2,0.9
			c-1.7,3-3.4,6-5.5,9.6C374.6,142.2,378.8,142.2,383,142.1z"/>
		<path class="st0" d="M310.6,142.1c0.7,0,1.6-0.5,1.9-1.1c1.8-2.9,3.4-5.8,5.5-9.4c-5.1,0-9.5,0-14,0c-0.4,0-0.9,0.3-1.1,0.6
			c-1.8,3.1-3.5,6.1-5.2,9.2c0.4,0.3,0.6,0.5,0.8,0.5C302.6,142.1,306.6,142.2,310.6,142.1z"/>
	</g>
	<path class="st1" d="M184.9,122.7c3.5-6.1,6.6-11.5,9.8-16.9c0.3-0.5,0.9-1,1.4-1.1c2.1-0.1,4.3,0,7.1,0c-1.3,2.2-2.3,3.9-3.3,5.6
		c-1.8,3.2-3.7,6.3-5.4,9.6c-1.1,2.1-2.4,3.2-4.9,2.8C188.3,122.6,186.9,122.7,184.9,122.7z"/>
	<path class="st1" d="M213.9,96.9c-0.8,5.1-2.5,6.6-6.9,6.6c-5,0-9.9,0-14.9,0c-0.4,0-0.8-0.2-1.4-0.3c0.9-1.8,1.6-3.4,2.5-4.9
		c0.4-0.6,1.2-1.2,1.8-1.3C201.2,96.9,207.5,96.9,213.9,96.9z"/>
	<line class="st2" x1="108.2" y1="185.1" x2="569.8" y2="185.1"/>
	<g>
		<linearGradient id="SVGID_1_" gradientUnits="userSpaceOnUse" x1="606.4319" y1="156.482" x2="618.9154" y2="140.1998">
			<stop  offset="0" style="stop-color:#FFFFFF"/>
			<stop  offset="0.2103" style="stop-color:#FCFCFC"/>
			<stop  offset="0.3454" style="stop-color:#F4F4F4"/>
			<stop  offset="0.4594" style="stop-color:#E5E5E5"/>
			<stop  offset="0.5618" style="stop-color:#D0D0D0"/>
			<stop  offset="0.6563" style="stop-color:#B5B5B5"/>
			<stop  offset="0.745" style="stop-color:#939393"/>
			<stop  offset="0.8292" style="stop-color:#6C6C6C"/>
			<stop  offset="0.9098" style="stop-color:#3E3E3E"/>
			<stop  offset="0.985" style="stop-color:#0B0B0B"/>
			<stop  offset="1" style="stop-color:#000000"/>
		</linearGradient>
		<polyline class="st3" points="619.8,158.2 614.7,144.1 599.3,146.6 		"/>
		<polyline class="st4" points="608.3,132.5 613.4,146.6 628.8,144.1 		"/>
		<linearGradient id="SVGID_2_" gradientUnits="userSpaceOnUse" x1="644.5049" y1="173.2104" x2="635.0491" y2="179.0786">
			<stop  offset="0" style="stop-color:#FFFFFF"/>
			<stop  offset="0.2103" style="stop-color:#FCFCFC"/>
			<stop  offset="0.3454" style="stop-color:#F4F4F4"/>
			<stop  offset="0.4594" style="stop-color:#E5E5E5"/>
			<stop  offset="0.5618" style="stop-color:#D0D0D0"/>
			<stop  offset="0.6563" style="stop-color:#B5B5B5"/>
			<stop  offset="0.745" style="stop-color:#939393"/>
			<stop  offset="0.8292" style="stop-color:#6C6C6C"/>
			<stop  offset="0.9098" style="stop-color:#3E3E3E"/>
			<stop  offset="0.985" style="stop-color:#0B0B0B"/>
			<stop  offset="1" style="stop-color:#000000"/>
		</linearGradient>
		<polyline class="st5" points="638.4,169.1 632,181.9 647.4,179.3 		"/>
	</g>
</g>
</svg>

