<?xml version="1.0" encoding="utf-8"?>
<!-- Generator: Adobe Illustrator 21.0.0, SVG Export Plug-In . SVG Version: 6.00 Build 0)  -->
<svg version="1.1" id="Capa_1" xmlns="http://www.w3.org/2000/svg" xmlns:xlink="http://www.w3.org/1999/xlink" x="0px" y="0px"
	 viewBox="0 0 512 512" style="enable-background:new 0 0 512 512;" xml:space="preserve">
<style type="text/css">
	.st0{fill:none;}
</style>
<g>
	<rect x="15.6" y="15.6" class="st0" width="480.8" height="480.8"/>
	<path d="M224.1,426.7H28.3C12.7,426.7,0,414,0,398.4V138.6c0-5.9,4.7-10.6,10.6-10.6h405.3c5.9,0,10.6,4.7,10.6,10.6v85.3
		c0,5.9-4.7,10.6-10.6,10.6s-10.6-4.7-10.6-10.6v-74.6h-384v249c0,3.9,3.1,7,7,7h195.8c5.9,0,10.6,4.7,10.6,10.6
		S229.9,426.7,224.1,426.7z"/>
	<path d="M416.1,149.3c-3.8,0-7.4-1.9-9.4-5.5L342.3,26.9c-1.8-3.4-5.5-5.5-9.4-5.5H93.8c-3.9,0-7.4,2.2-9.4,5.5L20,143.8
		c-2.8,5.2-9.3,7-14.4,4.2s-7-9.4-4.2-14.5L65.7,16.6C71.3,6.3,82.1,0,93.7,0h239.1c11.6,0,22.4,6.3,28,16.6l64.4,116.9
		c2.8,5.2,1,11.6-4.2,14.5C419.5,148.9,417.8,149.3,416.1,149.3L416.1,149.3z"/>
	<path d="M213.3,149.3c-5.9,0-10.6-4.7-10.6-10.6v-128c0-5.9,4.7-10.6,10.6-10.6s10.6,4.7,10.6,10.6v128
		C224.1,144.6,219.2,149.3,213.3,149.3z"/>
	<path d="M373.4,512c-2.3,0-4.5-0.8-6.3-2.2c-5.4-4-132.3-99.6-132.3-176.4c0-42.7,34.7-77.4,77.4-77.4c24.3,0,46.8,11.3,61.2,29.9
		c14.4-18.6,36.9-29.9,61.2-29.9c42.7,0,77.4,34.7,77.4,77.4c0,76.8-126.9,172.4-132.3,176.4C377.8,511.2,375.6,512,373.4,512z
		 M312.1,277.3c-31,0-56.1,25.2-56.1,56.1c0,51.7,79.4,124.8,117.4,154.5c37.9-29.7,117.4-102.6,117.4-154.5
		c0-31-25.2-56.1-56.1-56.1c-22.4,0-42.6,13.2-51.4,33.7c-3.3,7.7-16.2,7.7-19.6,0C354.6,290.5,334.5,277.3,312.1,277.3L312.1,277.3
		z"/>
</g>
</svg>
