<?xml version="1.0" encoding="utf-8"?>
<!-- Generator: Adobe Illustrator 15.0.0, SVG Export Plug-In . SVG Version: 6.00 Build 0)  -->
<!DOCTYPE svg PUBLIC "-//W3C//DTD SVG 1.1//EN" "http://www.w3.org/Graphics/SVG/1.1/DTD/svg11.dtd">
<svg version="1.1" id="Layer_1" xmlns="http://www.w3.org/2000/svg" xmlns:xlink="http://www.w3.org/1999/xlink" x="0px" y="0px"
	 width="1329.6px" height="831px" viewBox="0 0 1329.6 831" enable-background="new 0 0 1329.6 831" xml:space="preserve">
<g>
	<g>
		<g>
			<path fill="none" d="M1329.601,747.9c0,45.703-37.395,83.1-83.1,83.1H83.1C37.395,831,0,793.605,0,747.9V83.1
				C0,37.395,37.395,0,83.1,0h1163.401c45.703,0,83.1,37.395,83.1,83.1V747.9z"/>
			<g opacity="0.5">
				<path fill="none" d="M1246.501,2.77c44.301,0,80.328,36.028,80.328,80.33v664.8c0,44.301-36.027,80.325-80.328,80.325H83.1
					c-44.302,0-80.33-36.024-80.33-80.325V83.1c0-44.302,36.029-80.33,80.33-80.33H1246.501 M1246.501,0H83.1
					C37.395,0,0,37.395,0,83.1v664.8C0,793.604,37.395,831,83.1,831h1163.401c45.703,0,83.1-37.395,83.1-83.1V83.1
					C1329.601,37.395,1292.206,0,1246.501,0L1246.501,0z"/>
			</g>
		</g>
	</g>
	<g>
		<g>
			<path fill="#BFCD2E" d="M1203.998,221.947l-46.341-0.014c-5.052-0.004-9.151-4.1-9.151-9.158l0.021-46.91
				c0-5.059,4.1-9.151,9.15-9.151l46.342,0.015c5.059,0.003,9.15,4.103,9.15,9.157l-0.015,46.911
				C1213.153,217.855,1209.053,221.947,1203.998,221.947"/>
			<path fill="#BFCD2E" d="M1142.249,156.717l-31.475-0.01c-3.436,0-6.216-2.784-6.216-6.219l0.012-31.863
				c0-3.432,2.783-6.215,6.218-6.215l31.475,0.014c3.433,0,6.216,2.787,6.216,6.219l-0.012,31.863
				C1148.464,153.938,1145.68,156.717,1142.249,156.717"/>
		</g>
		
			<linearGradient id="SVGID_1_" gradientUnits="userSpaceOnUse" x1="71.0122" y1="823.1406" x2="71.0122" y2="430.8838" gradientTransform="matrix(1 0 0 -1 564 1066)">
			<stop  offset="0" style="stop-color:#BFCD2E"/>
			<stop  offset="1" style="stop-color:#608D36"/>
		</linearGradient>
		<path fill="url(#SVGID_1_)" d="M777.764,315.865c-13.601,0-18.935,4.194-21.943,17.24l-37.792,157.097
			c-4.716,19.306-11.341,22.836-22.688,22.836c-13.887,0-19.443-3.314-24.982-22.911l-42.803-157.096
			c-3.539-13.158-8.771-17.166-22.375-17.166h-3.646c-5.491,0-10.957,0.502-13.766,4.167c-2.811,3.664-1.856,9.14-0.412,14.517
			l43.256,158.454c8.117,30.325,17.764,55.426,53.804,55.426c6.729,0,12.949-0.935,18.124-2.678
			c-10.93,34.374-22.051,49.542-54.845,52.906c-6.655,0.559-10.977,1.507-13.388,4.739c-2.5,3.351-1.933,8.146-1.037,12.438
			l0.901,4.061c1.956,9.396,5.292,15.222,15.839,15.222c1.105,0,2.299-0.061,3.58-0.17c48.963-3.204,75.198-29.563,90.555-90.984
			l52.38-209.525c1.241-5.372,1.991-10.845-0.882-14.46c-2.879-3.614-8.322-4.109-13.776-4.109h-4.103V315.865z M425.48,477.394
			c0-26.427,15.785-36.724,56.3-36.724h50.379v31.715c0,25.851-9.583,40.816-58.577,40.816
			C441.211,513.201,425.48,501.485,425.48,477.394 M423.785,313.813c-11.24,2.444-15.941,5.532-15.941,18.313v3.646
			c0,5.01,0.743,8.477,2.333,10.916c1.853,2.845,4.835,4.287,8.868,4.287c1.971,0,4.252-0.329,6.972-1.012
			c6.419-1.603,26.941-4.92,49.384-4.92c40.318,0,56.759,11.167,56.759,38.542v24.425h-50.835
			c-65.352,0-95.792,22.047-95.792,69.383c0,45.913,31.434,71.201,88.504,71.201c67.828,0,98.074-23.084,98.074-74.845v-90.164
			c0-50.056-32.227-74.394-98.526-74.394C446.873,309.193,430.134,312.547,423.785,313.813 M1056.905,242.913
			c-28.17,0-38.651,4.651-38.651,30.311v60.056c-0.003,0.123-0.018,0.251-0.018,0.378v13.166c-0.008,0.452-0.035,0.884-0.035,1.351
			v83.9c0,10.251-1.975,18.411-6.049,24.75c-7.684,11.836-22.891,17.22-47.227,17.251c-24.322-0.031-39.527-5.408-47.215-17.233
			c-4.079-6.342-6.06-14.506-6.06-24.768v-83.9c0-0.467-0.028-0.897-0.035-1.351v-13.166c0-0.127-0.019-0.255-0.021-0.378v-60.056
			c0-25.659-10.474-30.311-38.646-30.311h-8.872c-28.174,0-38.655,4.651-38.655,30.311v60.434v63.582v34.835
			c0,25.56,5.771,47.192,16.901,64.636c21.507,33.795,63.165,51.796,122.385,51.796c0.075,0,0.146-0.003,0.22-0.003
			c0.074,0,0.146,0.003,0.216,0.003c59.229,0,100.883-18.001,122.386-51.796c11.139-17.442,16.9-39.076,16.9-64.636V397.24v-63.582
			v-60.434c0-25.659-10.478-30.311-38.655-30.311H1056.905z M206.91,300.403c0-13.494,5.018-18.51,18.507-18.51h59.652
			c38.254,0,60.398,9.438,60.398,57.671c0,37.692-9.623,58.123-60.398,58.123H206.91V300.403z M217.675,242.86
			c-36.018,0-52.079,16.059-52.079,52.075v231.332c0,13.912,4.466,18.376,18.378,18.376h4.554c13.916,0,18.381-4.464,18.381-18.376
			v-90.002h78.159c69.394,0,101.713-30.725,101.713-96.7c0-65.977-32.32-96.705-101.713-96.705H217.675z"/>
		<g>
			<path fill="#BFCD2E" d="M1135.736,309.991l-61.588-0.02c-6.715-0.005-12.162-5.448-12.162-12.171l0.027-62.345
				c0-6.723,5.449-12.162,12.162-12.162l61.588,0.02c6.724,0.004,12.162,5.452,12.162,12.17l-0.02,62.346
				C1147.903,304.553,1142.454,309.991,1135.736,309.991"/>
		</g>
		<path fill="#6DCC2F" d="M1104.373,273.158c0,0-0.202-14.844-3.771-19.423c-3.356-4.308-6.756-8.411-18.493-9.987
			c-6.358-0.854-12.704-0.997-16.82-0.933l-3.328-0.011v54.037c0,0,0.154,6.62,3.387,9.237c3.233,2.617,7.082,3.693,7.082,3.693
			l31.944,0.03V273.158z"/>
	</g>
</g>
</svg>

