<?xml version="1.0" encoding="utf-8"?>
<!-- Generator: Adobe Illustrator 21.0.0, SVG Export Plug-In . SVG Version: 6.00 Build 0)  -->
<svg version="1.1" id="Layer_1" xmlns="http://www.w3.org/2000/svg" xmlns:xlink="http://www.w3.org/1999/xlink" x="0px" y="0px"
	 viewBox="0 0 22.5 20.7" style="enable-background:new 0 0 22.5 20.7;" xml:space="preserve">
<style type="text/css">
	.st0{fill:none;stroke:#000000;stroke-miterlimit:10;}
	.st1{fill:none;stroke:#474645;stroke-width:1.3714;stroke-linecap:round;stroke-linejoin:round;stroke-miterlimit:10;}
	.st2{fill:none;stroke:#000000;stroke-linecap:round;stroke-linejoin:round;stroke-miterlimit:10;}
	.st3{fill:none;stroke:#9158A2;stroke-width:1.3714;stroke-linecap:round;stroke-linejoin:round;stroke-miterlimit:10;}
	.st4{fill:none;stroke:url(#);stroke-width:2.7692;stroke-linecap:round;stroke-linejoin:round;stroke-miterlimit:10;}
	.st5{fill:none;stroke:url(#);stroke-width:2.7651;stroke-linecap:round;stroke-linejoin:round;stroke-miterlimit:10;}
	.st6{fill:none;stroke:url(#);stroke-width:2.676;stroke-linecap:round;stroke-linejoin:round;stroke-miterlimit:10;}
</style>
<g>
	<g>
		<path d="M12.5,15v1.3h-1.8V15c-1.2-0.2-2.2-0.8-2.8-1.6l1.3-1.2c0.6,0.8,1.5,1.1,2.4,1.1c1.1,0,1.6-0.2,1.6-0.9
			c0-0.6-0.3-0.9-2.1-1.3c-1.7-0.4-2.9-0.9-2.9-2.8c0-1.4,1-2.3,2.4-2.6V4.4h1.8v1.3c1,0.2,1.7,0.7,2.4,1.4l-1.3,1.3
			c-0.6-0.6-1.3-0.9-2.1-0.9c-1,0-1.3,0.4-1.3,0.8c0,0.6,0.4,0.8,1.9,1.1c1.5,0.3,3.1,0.8,3.1,2.8C15.1,13.7,14.3,14.7,12.5,15z"/>
	</g>
	<circle class="st0" cx="11.5" cy="10.3" r="9.5"/>
</g>
</svg>
