<svg id="Layer_1" enable-background="new 0 0 512 512" height="512" viewBox="0 0 512 512" width="512" xmlns="http://www.w3.org/2000/svg"><path d="m450.419 450.421v-388.84h-110.5c-3.82 0-6.919-3.097-6.919-6.919s3.099-6.919 6.919-6.919h117.419c3.82 0 6.919 3.097 6.919 6.919v402.678c0 3.822-3.099 6.919-6.919 6.919h-117.419c-3.82 0-6.919-3.097-6.919-6.919s3.099-6.919 6.919-6.919zm15.914-450.421h-215.869c-25.18 0-45.662 20.484-45.662 45.664v90.637c0 3.822 3.099 6.919 6.919 6.919s6.919-3.097 6.919-6.919v-90.637c0-17.55 14.275-31.827 31.824-31.827h215.869c17.55 0 31.829 14.277 31.829 31.827v420.671c0 17.55-14.279 31.827-31.829 31.827h-215.869c-17.55 0-31.824-14.277-31.824-31.827v-90.637c0-3.822-3.099-6.919-6.919-6.919s-6.919 3.097-6.919 6.919v90.637c0 25.18 20.482 45.664 45.662 45.664h215.869c25.18 0 45.667-20.484 45.667-45.664v-420.671c0-25.18-20.486-45.664-45.667-45.664zm-209.928 323.804c-3.059 2.291-3.68 6.628-1.387 9.685 1.36 1.815 3.437 2.77 5.541 2.77 1.446 0 2.901-.45 4.144-1.383l97.847-73.34c1.743-1.306 2.77-3.358 2.77-5.536s-1.027-4.23-2.77-5.536l-97.847-73.34c-3.045-2.288-7.387-1.671-9.685 1.387-2.293 3.056-1.671 7.394 1.387 9.685l81.232 60.887h-330.718c-3.82 0-6.919 3.097-6.919 6.919s3.099 6.919 6.919 6.919h330.712z"/></svg>