<svg enable-background="new 0 0 24 24" height="512" viewBox="0 0 24 24" width="512" xmlns="http://www.w3.org/2000/svg"><path d="m10.5 20h-9.174c-.731 0-1.326-.595-1.326-1.326v-12.174c0-.276.224-.5.5-.5h19c.276 0 .5.224.5.5v4c0 .276-.224.5-.5.5s-.5-.224-.5-.5v-3.5h-18v11.674c0 .18.146.326.326.326h9.174c.276 0 .5.224.5.5s-.224.5-.5.5z"/><path d="m19.5 7c-.176 0-.347-.093-.438-.259l-3.02-5.482c-.087-.16-.255-.259-.438-.259h-11.208c-.183 0-.351.099-.438.259l-3.02 5.482c-.133.243-.439.328-.679.197-.242-.133-.33-.438-.197-.679l3.02-5.482c.263-.48.767-.777 1.314-.777h11.209c.547 0 1.051.297 1.314.776l3.019 5.482c.134.242.046.546-.196.679-.077.043-.16.063-.242.063z"/><path d="m10 7c-.276 0-.5-.224-.5-.5v-6c0-.276.224-.5.5-.5s.5.224.5.5v6c0 .276-.224.5-.5.5z"/><path d="m17 22c-2.757 0-5-2.243-5-5s2.243-5 5-5 5 2.243 5 5-2.243 5-5 5zm0-9c-2.206 0-4 1.794-4 4s1.794 4 4 4 4-1.794 4-4-1.794-4-4-4z"/><path d="m23.5 24c-.128 0-.256-.049-.354-.146l-3.318-3.318c-.195-.195-.195-.512 0-.707s.512-.195.707 0l3.318 3.318c.195.195.195.512 0 .707-.097.097-.225.146-.353.146z"/></svg>