<svg id="Layer_1" enable-background="new 0 0 512 512" height="300" viewBox="0 0 512 512" width="300" xmlns="http://www.w3.org/2000/svg" xmlns:xlink="http://www.w3.org/1999/xlink" version="1.1" xmlns:svgjs="http://svgjs.dev/svgjs"><circle r="256" cx="256" cy="256" shape="true" transform="matrix(0.86,0,0,0.86,35.84,35.84)" fill-opacity="1" fill="#9158a2"/><g width="100%" height="100%" transform="matrix(1,0,0,1,0,0)"><radialGradient id="SVGID_1_" cx="181" cy="183" gradientUnits="userSpaceOnUse" r="319.15"><stop offset="0" stop-color="#00b0ff"/><stop offset="1" stop-color="#000093"/></radialGradient><linearGradient id="lg1"><stop offset="0" stop-color="#c6ff00"/><stop offset="1" stop-color="#64dd17"/></linearGradient><radialGradient id="SVGID_2_" cx="181.432" cy="180.363" gradientUnits="userSpaceOnUse" r="321.817" xlink:href="#lg1"/><radialGradient id="SVGID_7_" cx="236.539" cy="467.423" gradientUnits="userSpaceOnUse" r=".286" xlink:href="#lg1"/><radialGradient id="SVGID_27_" cx="181.432" cy="180.363" gradientUnits="userSpaceOnUse" r="321.762" xlink:href="#lg1"/><g><g clip-rule="evenodd" fill-rule="evenodd"><circle cx="256" cy="256" fill="#ffffff" r="216" data-original-color="SVGID_1_" stroke="none" stroke-opacity="1" fill-opacity="1"/><g><path d="m470 228.5c-2.3-3.8-1.7-11.7-2.6-16-1.4-6.5-2.9-12.8-4.9-19.1-2.4-7.7-5.2-15.2-8.3-22.5-2.5-5.9-6.4-18.8-11.6-22.6-.2.3-.9 6.6-.9 2.1-3.9 2.7 11 39.5 13 41.6-2 5.6 1.6 13.3 4.3 19.3 2.2 4.8 5.4 24.9 9.9 26.5 1.4.5-.1-3.1 1.8-.8 0-2.3.5-6.4-.7-8.5-.5-.8.8 1.4 0 0zm-13.7-32.9c-.2-.2.2-.1 0 0 0 0 .1 0 0 0zm1.4-2.2c-.3.5 0-.4 0 0-.1.1 0 0 0 0zm1.2 2.3c-.3-.6 0-.2 0 0-.1-.1 0 0 0 0zm1.2 1.8c-.1-.4 0-.3 0 0 0-.1 0-.1 0 0zm3.7 5.2c0-.1 0-.1 0 0 .1-.1 0-.1 0 0z" fill="#9158a2" data-original-color="lg1" stroke="none" stroke-opacity="1" fill-opacity="1"/><path d="m287.3 460.3c-3.6 1.4-8.4 1.7-11.2 3.4.8-.1 1.5-.2 2.3-.3-.1.8-4.8 4.7-5.9 4.6 2.7-.5 1.4-3.1-.8-3.1.2 0-3 3.4-2.9 2.7-.1 1 1.1.3 1.6.6-.2.4-7.1-.8-3.2-.2-4.3 2.5-14.2.8-19.6.7-5.8-.1-11 0-16.6-.1-3 0-16.7-3.5-18.3-1.2 9.8 2.2 19.9 3.5 29.9 4 10.8.5 22.9 1.6 32.6-1.8-3.8-.8 2.1-1.1 2.9-1.6 1.3-1 3.1-2.4 4.2-3.6-.9.3-1.2 0-.9-.9.3-1 7-2.5 7.9-3.5-.7-.2-1.4-.2-2 .3-.3.1 1.3-.5 0 0z" fill="#9158a2" data-original-color="lg1" stroke="none" stroke-opacity="1" fill-opacity="1"/><path d="m441.5 147.5c1 0 1.1-.8.4-.8-.2 0-1.3.7-.4.8z" fill="#9158a2" data-original-color="lg1" stroke="none" stroke-opacity="1" fill-opacity="1"/><path d="m428 282.8c-.5-.3.1-3.2-.3-3.9-1-2.1-2.2-1.2-3.6-2.3-1.3-1-2.9-2.2-4.4-4-3.3-3.9-4.3-3.5-8.4-4.2-1.6-.3-6.9-.3-7.3-.5-1.4-.9-2.2-4.2-2.9-5.6-.3 2.1-3.4-1.5-4.9-2.1-1.7-.6-7.1.6-4.7 1.9-3.1 1-.6-1.3-1.8-2.9-2.2-2.9 2.3.3-2.7-2.8-3-1.9-1-1.4-3.6-1.4.4.4.7.9.7 1.5-.8-.8-1.7.9-1.6 1.5-.3-.3 1.2-3.7 1.5-4.7 1.4-4.1-.2-4.2-1.9-8.3-.8-1.8-.1-4-1.1-5.7-1.9-3.2-9.4-7.8-13.3-8.2-2.6-.2-4.8.7-6.9 0-2.8-1-5.1-4-6.9-5.9-1.5-1.6-2.7-3.3-4.8-4.4-.8-.5-4.4-.6-5.4-1.5.1-.6 1-2-.1-2.1 2.2-.3-4.6-3-4.7-3-2-1.5-1.1-2.8-3.8-3-1.8-.2-3.8 2.5-5.3 2.7-1.4.2-8.8-3.8-8.8-2-.3-.6-.5-.6-1.4-.8-.5-.1-1.3.8-1.8.6-.9-.4-1.3-1.2-2-1.6-4.4-2-5.7-4.3-9.8-.6-.4-1.5-2.9-1.8-4 .9-2-1.6-1-2.1-2.3-3.2 1.8-1.2 1.7-.1 3.2-2.3 0 .1-2-.7-2.4-.7-1.4 0-2.5 2.6-3 2.9-3.7 2-2.8.1-6 1.3-3.5 1.4-4.1 3.4-5.7 5.6-1.9 2.4-4.6 4.5-6.2 7 .9-4.2-7.5-5.1-9.6-5-1.8.1-10.8 3.2-12.4 1.8 1.7-.6-5.2-8.7-6.4-8-.8-2.2 1.8-4.7.1-6.8 3.1.8 3.5-11.7-2.7-13.4-.5-.1-2.3 0-3.5 0-3.1 0-5.8.7-8.8.2-5.7-1-3.6-4.2-1.5-9.9 1.5-4.1 8.1-10.6 2.9-13.2-2.3-1.1-10 .7-11.6 2.3-1.8 1.8-1.2 5.1-3.2 7.1-2.5 2.6-9.5 4.3-12.4 4-5.8-.6-8.3-4.4-10.1-8.7-.7 1.2-1.3-1.8-1.7-3-.3-.8-1.4-3-1.5-4.8-.1-1.6 1.7-7.5 2.3-8.9.5-1.1 1.7-2.2 2.1-3.6.6-2.1-1.1-3.6.8-6.4 1.3-1.9 7.3-5.1 10.1-6.4 4.3-2 8 .1 12.2 0 2-.1 7.3.3 4.1-2.9 4.7 0 9.7-1.2 14.4-.4 2.1.4 3.3 1.6 5.3 1.8.7.1 1.6-1.5 2.3-1.4 2.3.4 4.3 2.8 5.1 4.6.6 1.5.2 4.1 1 5.7.5 1 4.3 7.1 5.5 7.3 8 1.3-1.6-15.7-1.9-18.2-.7-6.4 6.7-9.8 11.2-12.7 1.6-1 5.5-4.6 6.5-4.2.4-1.2.6-1.8-.8-2.1 1-1.2-4-8.4-1.6-9.7-.5.3 7.1 7.8 3.8-.1 4.4-.9 2.6-5 5.8-6.4 1.3-.6 3.1.8 4.9-.4 3.1-2-.9-.8.5-3.2 2.1-3.4 15.7-10.5 17.6-5.2-1.6-.3-7.4 1.3-3.2 3.1.1 0 4.9-1.3 3.7-2.6 2.5.9 4.2-.7 6.6-.9-.9-2.9-7-.8-10-3.3-1.6-1.3-1.5-3.7-3.4-4 5.1-.3-1.8-3.2-4.6-2.7-1 .2-9 3.7-8.7 4.5-.9-2 5.6-4.9 6.8-5.6 2.9-1.4 3.7-1.8 7.8-1.6 2.3.1 6.4 1 8.1.6 1.6-.4 1.6-1.1 4.2-2.5 2.5-1.3 4.9.5 2.8-2.8-1.3-1.9-4-2.6-5.7-3.3s-5.8-2.8-8.1-2.3c.3-.8-10.5-8.1-12.1-8.4-3-.5-2.7 1.8-6 2.1-.3 0-3.5-.9-3.6-1-1-.6-1.6-2.7-2.6-3.3-1-.5-2.3-.1-3.3-.4-1.1-.4-12-3.7-12.6-1.7-1.2 3.5 4.8 1 .2 5.5 7.7 3 5.3 5.8-1.7 7.3 1.8 1.3 3.7 4.6 2.8 7-1-.9-2.3.6-3.8.1-.8-.3-3.1-2.7-3.6-3.4.1 0 1.9 0 1.3-.7-.3-.3-1.6-.3-1.7.3-.9-.9-.2-3.4-1.2-4.2-1.6-1.3-5.3-.8-7-1.2-3.8-.8-10.3-1.7-13.7-3.2-10.5-4.7 11.4-9.7 14.4-12.1-1.1 2.2-.8 1.5-2.6 2.6 2.8.5 4.6-.7 7-.8 1.8 0 2.8 1 5.1.8-2.2-.8-9.2-1.9-9.5-3.2.5 2.4 10.8-1.5 6.4-3.7 3-.1 6.5.5 9.5 1.5-.9 0-1.9-.1-2.5.7.7.3 3.7.9 3-.5 1 .2 2.4.6 3.4.7-1.1 1.6-8.2 2.1-5.3 4.2 1.2.8 5-.1 6.6.1 2.4.3 4.7 1.4 7.1 1.9s5.2 1 7.8 1.3c-1-.6-2-1.2-3-1.7 1.1-.3 2.6.3 3.6.7 1.5.7-6.2-4.8-3.6-3.1-1.6-1.1-2.5-.7-3.7-2.1 1.2-.4 11.2 3.3 6.5-.2-1.9-1.5-6-1-8.2-1.6-.3-.1-3.8-.4-.6-1-6.1-2.4-14-1.9-20.3-3.9.2 0 6.1-1.8 5.9-2.6-5.3 0-10.6 0-15.9 0 0 1.6-.8 0-.8 1.8 0 1.2 2.5.9 3.1.9-1.1.1-1.8.6-2.2 1.5.7 2.1 5.5-.3 5 2.5-.2 1.4-3.8 1.2-4.6.6 2.7-.9-3.1-.7-2.7-.4-.8-.5-2.3-2.8-3.1-2.7 1.7-1 3.4-1 5.4-1.4-6-1.4-8 3-10.3 4.7 2.8-2.2-3.6.2-3.6.2-1.4.3-8.6 1.3-9-.6 3.2 0 5.2 0 7.6-1-2.3-.8-3.3.1-1.3-2.3-5.8.2-15.1-1.3-20.7 2.3 1.7.6 3.4-.4 5.1-.6-1.9 1.5 0 .2.4 1.3-1.1.1-2.2-.3-2.9.8 1.5.3 2 .8 3.4.8-9.5 0-20 0-29.9 3.2-7.9 2.5-22.7 6.5-28.7 12.3 1.8 1 5.5-1.2 3.6 2.4-1.9 1 3.2-1.3 2.9-1 0 1.7-4.5 5.9-5.4 8.1-.6 1.5-1.7 4.3-3.2 5.8 1.2.6.9 2.3.3 1.9.1-.6 0-1-.4-1.1.8.1-2.2.7-1.5.1-1.6 1.5 1.7 4.8 3.2 4.2-.6.2 1.3-4.6 1.2-4 .4.9 2.1 2.4 1.5 3.8-1.3 2.8-2.5.7-3.9 1.7-4.6 3.3-9.9 11.2-13.2 16.4-3.6 5.7-3.4 8.5-3.3 14.3 0 2-1.5 5.6-.8 7.7 6.2-2.7 5.8 5.6 5.9 8.6.2 4.6 3.5 8 3.1 11.5-.2 1.7-2 .6-1.8 2.4.4 2.7 4.6 2.7 5.8 6 .5 1.5-.9 3 .2 5 .3.6 4.7 4.7 4.5 4.6 2.9.3-2-6.1-2-6-1.4-3.3-1.3-6.5-2.7-9.9-1-2.4-4.9-10.7-2.3-13.1 1.1-1 3.5-.4 4.5.9-.1-.1.2 4 .3 4.4.6 3 1 3.5 2.8 6 1.1 1.5 2.8 3.6 4 5.6.2.3-.1 2.1.2 2.6.5.8 1.9.9 2.5 1.7 3.5 4.4 6.7 10.2 6.7 15.9 0 3.6-3.2 1.7.5 5.9 1.1 1.2 4.7 3.7 5.7 4.2 6 2.8 11.8 5.6 18.1 7.9 4.1 1.5 5.1 1.9 9 .9 4.2-1 3.8-2.5 7.8.1 2.7 1.7 4 4.5 7 6.3s6.1 1.8 8.9 2.7c1.1.3 1.9 1.2 3.2 1.5 1 .2 4.2-.4 4.4-.3 1.5.6 7.1 6.3 8.2 8 0 .1 1-2.1.9-2.1 1 0 3.7 3.4 2.1 3.4-1 0-1.4.2-1.8-.5-2.5 2.3-.2 4.6.5 5.3-1.2-1.2 4.7.7 4.2.8-.9 1.3 4.1 5.2 5.1 5.7 1.7.9 3.4.2 5 .7 1 .4 4.7 4.7 6.7 3.5 1.2-.7-.3-5.5 3.3-6.5 5.1-1.3 5.3 3.8 7 6.8 2 3.5 2.4 3.5 2.5 7.7.1 4.1 1.6 6-.3 10.2-.7 1.6-.9 2-1.7 2.9 0 0-2.4.5-2.9 1.1s-1.1 2.2-1.3 2.4c.7-.8-2.8 3.1-2.1 2.2-1.2 1.5-1.8 1.4-2.9 3-1.4 2-3 5.5-2.9 7.9.1 1.9 1 2.3 1.8 4.2.6 1.5 2-1.4 1 2.5-.5 1.9-1.5.8-2.3 1.8-3 3.8-1.7 2-1.8 6.1 0 1.3-.3 2.6-.3 3.9 0 .6 6 5.7 7.2 7.5 2.4 3.5 2.8 5.7 4.6 9.8 1.2 2.7 3.2 6.5 4.8 9.1 1.9 3.1 2.4 6.3 4.1 9.4 2.7 5.2 9.4 6.5 14.1 9.3 2.2 1.3 4.9 3.5 6.1 5.3 1.3 1.9 1.3 1.8 1.6 4.8.1.9.8 3.1.6 5.4-.1 1.5-1.5 5.2-.7 6.2-3.6 2.3-1.2 16.2-5.4 17.8 1 .4-3.7 13-4.2 15.6-1.4 7.4-6.5 11.4-9.2 17.8-.7 1.6-3.6 10.2-3.3 11.4 1 3.7.8.5 3.5 2.5-2.1 3 .7 5.4-.2 8.5-.5 1.5-6.2 4.3-3.1 6-.6-.1-.9.2-.7.7 2.1 1.2.3-.4 1.6-.4-1.1 1.8-2.3 3.5-3.4 5.3.3-.9.1-1.9-.6-2.3-1.3-.7-2.1 7.7-1.3 6.8-.3 1.3-.7 2.5-1.5 1.1-.3.3.9 3.6 1.8 4.2 1.5 1.1 8.3 4.1 8.4.1 0-.2-3.2.8-3.3.8.8-.8 1.2-1.7.9-2.9.8-.1 1.5-.4 2.2-.8 1.3-1.3 2.3-2.3 3.9-3.4 0-3-4-.7-2.3-4.4.7-1.4 1.6-1.1 2.5-1.8.6-.5 3-1 4-1.5.2-.3.4-.7.6-1 .2-1.7 1.2-2.4 2.9-2.1 1.1-1.4 3.3-4.2 3.9-6.2.7-2.3.5-2.5.3-4.9-.1-1.2-1.8-1.6-1.5-2.8 2.1-10.2 17 5.6 17.7-8 4 .6 22.4-2.4 17.6-9.9 1.3 2.1.4-6.4-.5-4.8 0-.1 8 1.7 9.2 1.4 2.6-.6 4.7-3 6.7-5 .5-.5-.1-1.6.1-1.8 1.4-1.4 3.2-2 4.7-3.3 1.6-1.4 2.9-3.8 4.6-5.1 1.3-1.1 3.2-1.8 4.8-3.1 3.7-3.1 5.1-5.3 6.6-9.1.3-.9.9-2.2 1.6-4 .2-.5.7-3.3.9-3.6 2.1-2.6 1 1.1 2.6.2 0-2.8 4.2-3.5 5.8-4.4 2.5-1.4 4.2-5.3 7-6-1.7 5 8.1-.5 8.9-1.1-.3-.2-.5-.3-.8-.4 1.6-.9 2.6-3.9 3.5-5.1 2.9-4 5.2-9 7.5-13.8 2.9-6.3 3.1-12.5 7-18.1 5.1-6.5 12.6-15.4 10.9-23.9-.4-.3.9 4.3 0 0zm-159.4-190.9c1.6 0 5.1-.1 6.2 1.1-2.4 1.8-5.6.9-6.2-1.1zm-16.6-47.6c-1.5-1.9 2.6-1.3 3-1.3-.4.3-2.8 1.6-3 1.3-.2-.2.4.5 0 0zm-.3 42.9c.3 0 2.9 1.6 2.8.7-.1.6 0 1.2.3 1.7.6-5.4 9.6-1.4 8.3 1.8-1.2-1-5.6 2.9-5.9 3.5-.2-1.3-.5-2.6-.7-3.8-1.3 2.2-3.7.1-4.3-1.4-2.8-2.7-5.6 1.3-6.7 3.7-1.7 3.6.2 7.9-5.5 4.2 1.5-.4 1.1-3.6 1.8-5.1 1.1-2.7.7-3.1 4.2-4.3 2-.8 3.6-.8 5.7-1zm-21.5-2.6c1.7 1.8 6.6-2.8 8-3.2 2.8-.8 6.9-1.3 10.1 1.4 7.6 6.4-8.7 1.7-8.5 1.5-1 1.4-9.2 2.2-9.6.3.1.1 0 .1 0 0zm74.6 131.4c-3.6 4.3-5.7-3.7-2.8-5 1.6-.7 3.1 3.7 2.8 5-.1.1.1-.5 0 0zm-24.8 219.3c-.1-.6.1-1.1.7-1.4-.3.5-.5.9-.7 1.4-.2-.2.2-.5 0 0zm30.4-161c-1.4-1 1.1-.4 0 0-.1-.1.2 0 0 0zm17.1 102.7c-.8-.6.4-1.3 0 0-.2-.1 0-.2 0 0z" fill="#9158a2" data-original-color="lg1" stroke="none" stroke-opacity="1" fill-opacity="1"/><path d="m273.8 471.2c.4-.2 1.1.4 1.3-.4-.5.1-1.1-.4-1.3.4z" fill="#9158a2" data-original-color="lg1" stroke="none" stroke-opacity="1" fill-opacity="1"/><path d="m236.7 467.4c-1.7.1 1.1 0 0 0-.2 0 .1 0 0 0z" fill="#9158a2" data-original-color="lg1" stroke="none" stroke-opacity="1" fill-opacity="1"/><g fill="url(#SVGID_2_)"><path d="m269 42.1c1.1 1 8.3.3 9.8.5 2.6.4 4.9 1.4 7.4 2 1.5.3 3 .5 4.2.9.7.2 7 2.3 7.7 2.8-.4.1-.8.1-1.2.1-.1 0 10.6 6 12 6.7 1.9.8 16.5 7.7 18 6 .2-.3-7.2-7.4-6.9-7.5 1.4-.3 2.2-2.2.3-2 3.9-.3-3-2.6-3.7-2.8-4-1.2-8.7-2.3-13-3.3-12.2-2.6-25.5-5.1-37.7-4.6.9.6 2 .9 3.1 1.2.2.1-.9-.9 0 0zm52.2 15c-.2-.1-.3-.2-.4-.3.1 0 .3.2.4.3zm-6.6-3.4c-.1.2-.3-.1 0 0 0 .1-.1 0 0 0zm-1.6-1c-.1.5-.3-.2 0 0 0 .1-.1 0 0 0zm-3.3-2.3c0 .8-.2.1 0 0zm-6-2.1c-.3.5-.2 0 0 0zm-1.6-.4c0 .7-.5.4 0 0 0 .2-.1.1 0 0zm-2.9-1.1c-.1.6-.2-.1 0 0z" fill="#9158a2" data-original-color="lg1" stroke="none" stroke-opacity="1" fill-opacity="1"/><path d="m299.7 367.2c.5.6.5-.1 0 0 .1.1.1 0 0 0z" fill="#9158a2" data-original-color="lg1" stroke="none" stroke-opacity="1" fill-opacity="1"/><path d="m334.8 55.7c-.3-.3-.7-.4-1.1-.1 0 .6.4.7 1.1.1-.2 0-.3.1 0 0z" fill="#9158a2" data-original-color="lg1" stroke="none" stroke-opacity="1" fill-opacity="1"/><path d="m265.3 41.1c-.3-.3-.7-.4-1.1-.1.1.6.5.6 1.1.1-.1-.1-.2.1 0 0z" fill="#9158a2" data-original-color="lg1" stroke="none" stroke-opacity="1" fill-opacity="1"/><path d="m234.9 44.4c.2.2 5.5.4 4.9-.4-1.3-2.3-4.1 1.1-4.9.4 1.5 1.3 0 0 0 0z" fill="#9158a2" data-original-color="lg1" stroke="none" stroke-opacity="1" fill-opacity="1"/><path d="m230.1 42.6c-1.7-.1-3.1-.1-4.3.7 1.3 0 2.7.4 4.3-.7z" fill="#9158a2" data-original-color="lg1" stroke="none" stroke-opacity="1" fill-opacity="1"/><path d="m241.9 41.8c-1-.6-1.8.4-2.8.5 1 .3 2 .4 2.8-.5z" fill="#9158a2" data-original-color="lg1" stroke="none" stroke-opacity="1" fill-opacity="1"/><path d="m242.8 42.4h2.4c-.6-.3-1.3-.4-2.4 0z" fill="#9158a2" data-original-color="lg1" stroke="none" stroke-opacity="1" fill-opacity="1"/><path d="m233.6 42.6c-.7 0-1.3 0-1.9 0 .6.3 1.2.5 1.9 0z" fill="#9158a2" data-original-color="lg1" stroke="none" stroke-opacity="1" fill-opacity="1"/><path d="m237.7 42.5c.9.5-.4-.9-.3-.9-.6.2-.2.6.3.9.1 0-.2-.1 0 0z" fill="#9158a2" data-original-color="lg1" stroke="none" stroke-opacity="1" fill-opacity="1"/><path d="m234.9 44c-.7-.6-1.5 1.4 0 0-.1-.1-.2.2 0 0z" fill="#9158a2" data-original-color="lg1" stroke="none" stroke-opacity="1" fill-opacity="1"/><path d="m319.4 77.6c.2 0 .3.1.4.2-1.7-1 .2 5.7-2.2 5.7 1.4 1.6 6.9 1.8 9.3 1.2 1.8-.4 5.2-.8 1.7-3.6-.4-.3-7-1.4-7.6-1.4.4-2.6 1.1-3.8-2.1-3.8.3.4.5 1.3.5 1.7.2.1 0-.3 0 0zm.8 2.5s0 .1 0 0z" fill="#9158a2" data-original-color="lg1" stroke="none" stroke-opacity="1" fill-opacity="1"/><path d="m219.7 260.3c.9 0 1.5-.4 1.8-1.2-.2-2.6-3.4 1.6-1.8 1.2.5-.2-.1 0 0 0z" fill="#9158a2" data-original-color="lg1" stroke="none" stroke-opacity="1" fill-opacity="1"/><path d="m153.7 76.2c.4-.7.9-1.3 1.3-2-2 .3-1.8 2.6-1.3 2 .4-.6-.1.2 0 0z" fill="#9158a2" data-original-color="lg1" stroke="none" stroke-opacity="1" fill-opacity="1"/><path d="m311.8 180.1c4.1-3.4-14.4-6.8-18.5-6.2 1.8 1.1 3.4 2.7 3.8 4.9-1.2 0-6.9-.7-7.7 0-1.1 1 5.3 1.3 5.6 1.3 1.9.2 4.5 1.4 6.2 1.4-.1 0 3-1.5 3.6-1.7 2.4-.4 4.9.3 7 .3.6-.4-.1 0 0 0z" fill="#9158a2" data-original-color="lg1" stroke="none" stroke-opacity="1" fill-opacity="1"/><path d="m320.2 179.5c-7.1-1 2.2 5.1 2.5 1.1-.5-1-1.3-1.4-2.5-1.1-.3-.1.6.1 0 0z" fill="#9158a2" data-original-color="lg1" stroke="none" stroke-opacity="1" fill-opacity="1"/><path d="m254 54.7c1.2-.3 2.3.4 3.2-1-1.2.3-2.3-.4-3.2 1z" fill="#9158a2" data-original-color="lg1" stroke="none" stroke-opacity="1" fill-opacity="1"/><path d="m262.9 64.7c0 .7 1.7.3 1.6-.4-.7-.4-1.3-.3-1.6.4z" fill="#9158a2" data-original-color="lg1" stroke="none" stroke-opacity="1" fill-opacity="1"/><path d="m260.8 55c.5.6 1.1.6 1.8.1.1 0-1.9-1.1-1.8-.1z" fill="#9158a2" data-original-color="lg1" stroke="none" stroke-opacity="1" fill-opacity="1"/></g><path d="m265.1 53.3c-.4-.4-.8-.4-1.3-.2.6.9 1 1 1.3.2-.3-.1-.2.3 0 0z" fill="#9158a2" data-original-color="lg1" stroke="none" stroke-opacity="1" fill-opacity="1"/><path d="m260.5 71.6c.3.4.3-.6 0 0z" fill="#9158a2" data-original-color="lg1" stroke="none" stroke-opacity="1" fill-opacity="1"/><path d="m309.8 80.4c-1.7-.6-3.3-1.1-5-1.6 2.5 1.7 2.9 1.8 5 1.6z" fill="#9158a2" data-original-color="lg1" stroke="none" stroke-opacity="1" fill-opacity="1"/><path d="m150.2 156.6c.5-.4-.2-.4 0 0z" fill="#9158a2" data-original-color="lg1" stroke="none" stroke-opacity="1" fill-opacity="1"/><path d="m284.6 173.4c2.9-1 5.1.9 3.4-2.5-.8-1.6-7-2.3-8.4-2.9-3.8-1.7-8.7-4.9-13.4-6-2.8-.7-19.2-1.8-15.7 3.4.6-.6 5.7-3.3 6.8-3.3 3.2-.1 2.2 2 1.8 1.9.8.3 2.6.1 3.5.5 2 .8 4.3 1.4 6.3 2.2 1.1.5 2.5.4 3.5.9 1 .4.1 1.2.7 1.5 3.8 2.1 5.8 6.3 11.5 4.3.5-.2-.5.1 0 0zm-5.5-3.2c.1 0 .1.1.1.2 0-.1-.1-.2-.1-.2z" fill="#9158a2" data-original-color="lg1" stroke="none" stroke-opacity="1" fill-opacity="1"/><path d="m279.6 178.8c-.3.2-5 .4-5.1.1-1.4 2.4 5.9 4 6.9 2-.3-.9-.9-1.6-1.8-2.1-.1.1.7.2 0 0z" fill="#9158a2" data-original-color="lg1" stroke="none" stroke-opacity="1" fill-opacity="1"/></g></g></g></g></svg>