<svg version="1.2" xmlns="http://www.w3.org/2000/svg" viewBox="0 0 88 100" width="88" height="100"><style>.a{fill:#3f07af}</style><path fill-rule="evenodd" class="a" d="m81.5 29.9v2.3l4 1.1c1.5 0.3 2.5 1.6 2.5 3.1v8.9c0 1.5-1 2.8-2.5 3.1l-4 1v2.4l4 1c1.5 0.4 2.5 1.7 2.5 3.2v8.8c0 1.5-1 2.8-2.5 3.2l-4 1v2.4l4 1c1.5 0.3 2.5 1.6 2.5 3.1v8.9c0 1.5-1 2.8-2.5 3.1l-4 1.1v5.2c0 2.7-2.2 4.9-4.9 4.9h-63.6c-2.7 0-4.8-2.2-4.9-4.9h-2.4c-3.1 0-5.7-2.5-5.7-5.7 0-3.1 2.6-5.7 5.7-5.7h2.4v-3.3h-2.4c-3.1 0-5.7-2.5-5.7-5.7 0-3.1 2.6-5.7 5.7-5.7h2.4v-3.2h-2.4c-3.1 0-5.7-2.6-5.7-5.7 0-3.2 2.6-5.7 5.7-5.7h2.4v-3.3h-2.4c-3.1 0-5.7-2.5-5.7-5.7 0-3.1 2.6-5.7 5.7-5.7h2.4v-3.3h-2.4c-3.1 0-5.7-2.5-5.7-5.7 0-3.1 2.6-5.7 5.7-5.7h2.4v-3.2h-2.4c-3.1 0-5.7-2.6-5.7-5.7 0-3.2 2.6-5.7 5.7-5.7h2.4v-3.3c0.1-2.7 2.2-4.9 4.9-4.9h63.6c2.7 0 4.9 2.2 4.9 4.9v6.9l4 1c1.5 0.4 2.5 1.7 2.5 3.2v8.8c0 1.5-1 2.8-2.5 3.2zm-3.2-24.1c0-0.9-0.8-1.6-1.7-1.6h-63.5c-0.9 0-1.6 0.7-1.6 1.6v3.3h0.8c3.1 0 5.7 2.5 5.7 5.7 0 3.1-2.6 5.7-5.7 5.7h-0.8v3.2h0.8c3.1 0 5.7 2.6 5.7 5.7 0 3.2-2.6 5.7-5.7 5.7h-0.8v3.3h0.8c3.1 0 5.7 2.5 5.7 5.7 0 3.1-2.6 5.7-5.7 5.7h-0.8v3.3h0.8c3.1 0 5.7 2.5 5.7 5.7 0 3.1-2.6 5.7-5.7 5.7h-0.8v3.2h0.8c3.1 0 5.7 2.6 5.7 5.7 0 3.2-2.6 5.7-5.7 5.7h-0.8v3.3h0.8c3.1 0 5.7 2.5 5.7 5.7 0 3.1-2.6 5.7-5.7 5.7h-0.8c0 0.9 0.7 1.6 1.6 1.6h63.5c0.9 0 1.7-0.7 1.7-1.6zm-19.6 61.9v6.5c0 1.8-1.4 3.3-3.2 3.3h-19.6c-1.8 0-3.3-1.5-3.3-3.3v-6.5c0-1.8 1.5-3.2 3.3-3.2h3.3v-13.1h-1.7c-1.8 0-3.2-1.4-3.2-3.2v-3.3c0-1.8 1.4-3.3 3.2-3.3h11.4c1.8 0 3.3 1.5 3.3 3.3v19.6h3.3c1.8 0 3.2 1.4 3.2 3.2zm-3.2 0h-3.3c-1.8 0-3.3-1.4-3.3-3.2v-19.6h-11.4v3.3h1.7c1.8 0 3.2 1.4 3.2 3.2v13.1c0 1.8-1.4 3.2-3.2 3.2h-3.3v6.5h19.6zm-11.5-29.3c-4.5 0-8.1-3.6-8.1-8.1 0-4.5 3.6-8.2 8.1-8.2 4.6 0 8.2 3.7 8.2 8.2 0 4.5-3.6 8.1-8.2 8.1zm37.5-11.9l3.3-0.8v-8.8l-3.3-0.9zm-69.2-9.3c1.3 0 2.4-1.1 2.4-2.4 0-1.4-1.1-2.5-2.4-2.5h-6.5c-1.4 0-2.5 1.1-2.5 2.5 0 1.3 1.1 2.4 2.5 2.4zm0 14.7c1.3 0 2.4-1.1 2.4-2.4 0-1.4-1.1-2.5-2.4-2.5h-6.6c-1.3 0-2.4 1.1-2.4 2.5 0 1.3 1.1 2.4 2.4 2.4zm0 14.7c1.4 0 2.5-1.1 2.5-2.5 0-1.3-1.1-2.4-2.5-2.4h-6.5c-1.3 0-2.4 1.1-2.4 2.4 0 1.4 1.1 2.5 2.4 2.5zm0 14.6c1.4 0 2.5-1.1 2.5-2.4 0-1.4-1.1-2.5-2.5-2.5h-6.5c-1.4 0-2.4 1.1-2.4 2.5 0 1.3 1 2.4 2.4 2.4zm0 14.7c1.3 0 2.4-1.1 2.4-2.4 0-1.4-1.1-2.5-2.4-2.5h-6.5c-1.4 0-2.5 1.1-2.5 2.5 0 1.3 1.1 2.4 2.5 2.4zm0 14.7c1.3 0 2.4-1.1 2.4-2.5 0-1.3-1.1-2.4-2.4-2.4h-6.5c-1.4 0-2.5 1.1-2.5 2.4 0 1.4 1.1 2.5 2.5 2.5zm36.6-60.3c0-2.7-2.2-4.9-4.9-4.9-2.7 0-4.9 2.2-4.9 4.9 0 2.7 2.2 4.9 4.9 4.9 2.7 0 4.9-2.2 4.9-4.9zm32.6 44.4v10.5l3.3-0.8v-8.9zm0-19.5v10.5l3.2-0.8v-8.9zm0-19.6v10.5l3.3-0.8v-8.8z"/></svg>