<svg version="1.2" xmlns="http://www.w3.org/2000/svg" viewBox="0 0 88 72" width="88" height="72"><style>.a{fill:#3f07af}</style><path fill-rule="evenodd" class="a" d="m88 12.1v48.8c0 5-4.1 9.1-9.1 9.1h-69.8c-5 0-9.1-4.1-9.1-9.1v-48.8c0-5 4.1-9.1 9.1-9.1h12.3c0.3-0.1 0.7-0.1 1 0h56.5c5 0 9.1 4.1 9.1 9.1zm-9.1-6.4h-55.6v31.2c1.3-2 3.5-3.2 5.8-3.2 3.9 0 7.1 3.1 7.1 6.9 0 2.5-1.3 4.7-3.4 5.9h52.5v-34.4c0-3.5-2.9-6.3-6.4-6.4zm-76.2 6.4v34.4h8.3c-2.1-1.2-3.4-3.4-3.4-5.9 0-3.8 3.2-6.9 7.1-6.9 1.2 0 2.4 0.3 3.5 0.9 0.9 0.6 1.7 1.3 2.3 2.3v-31.2h-11.4c-3.5 0.1-6.4 2.9-6.4 6.4zm27.3 32.7c2-0.4 3.4-2.1 3.5-4.2-0.1-2.2-1.8-4-4-4.2-2.1-0.2-4.1 1.3-4.6 3.4l-1.2 6.1zm-16.1 0l6.2 1.2-1.1-6.1c-0.3-1.2-1-2.2-2.1-2.8-0.6-0.4-1.4-0.6-2.2-0.6-2.3 0-4.2 1.8-4.3 4.2 0 2 1.5 3.8 3.5 4.1zm-4.7 22.6h11.4v-16.1l-6.4 6.4c-0.5 0.5-1.4 0.5-1.9 0-0.5-0.6-0.5-1.4 0-2l6.4-6.4h-15.9v11.7c0 3.5 2.9 6.4 6.4 6.4zm76.2-6.4v-11.7h-60.1l8.6 8.7c0.5 0.5 0.5 1.4 0 1.9-0.5 0.5-1.4 0.5-1.9 0l-8.7-8.6v16.1h55.7c3.5 0 6.4-2.9 6.4-6.4z"/></svg>