<svg version="1.2" xmlns="http://www.w3.org/2000/svg" viewBox="0 0 80 100" width="80" height="100"><style>.a{fill:#3f07af}</style><path fill-rule="evenodd" class="a" d="m27.1 31.1c-3.4-3.6-5.1-8.2-4.8-13.2q0.3-6.8 5.1-11.6 3.7-3.7 9.1-4.9c2.1-0.4 5.8-0.4 7.8 0.2 6.5 1.8 11 6.3 12.9 12.7 0.4 1.3 0.4 1.9 0.4 4.6 0 2.6 0 3.3-0.4 4.6-1.8 6.3-6.6 11-12.9 12.7-2.2 0.6-6.5 0.6-8.7 0-3.2-0.9-6.1-2.6-8.5-5.1zm50.9 46.5c-0.2 1.4-1 3-1.8 3.7-0.9 0.8-1.9 1.3-5.8 2.9l-3.2 1.3v3.5l-13.6 5.4-13.6 5.5-13.6-5.5-13.6-5.4v-3.6l-3.5-1.4c-2-0.7-4-1.6-4.5-2-2.5-1.5-3.5-4.6-2.3-7.2 0.2-0.5 2.6-3.9 5.3-7.7l4.9-6.8 0.1-2.8 0.1-2.8 3-1.3 3.1-1.2 1.1-1.4c4.6-6 9.9-9.2 17.1-10.3 1.2-0.1 6.2 0.1 7.6 0.4 5.9 1.3 10.7 4.3 14.7 9.4l1.4 1.9 3.1 1.2 3.1 1.3 0.1 2.9 0.1 2.8 0.7 1c0.4 0.5 2.7 3.7 5 7 4.9 6.6 5.2 7.2 5 9.2zm-44.3-27.7c0 0.1 4.7 2.1 10.6 4.4l10.6 4.3 3.3-1.4 3.2-1.3-10.6-4.3c-5.8-2.3-10.7-4.2-10.9-4.2-0.2 0-6 2.3-6.2 2.5zm4.7 31.6l-0.1-14.1-10.9-4.4c-6.1-2.4-11.1-4.4-11.2-4.4-0.1 0-0.2 3.5-0.2 7.8v7.8l3.6 1.4c3.2 1.3 3.6 1.5 4.6 2.5 1.2 1.2 1.7 2.3 1.7 4 0 1.7-0.5 2.9-1.7 4.1-1.3 1.2-2.4 1.7-4.1 1.7-1 0-0.6 0.2 8.5 3.9 5.2 2.1 9.6 3.8 9.7 3.8 0.1 0 0.1-6.3 0.1-14.1zm1.6-16.9l4.2-1.7c2.4-1 4.3-1.8 4.3-1.8 0-0.1-4.8-2-10.7-4.4l-10.7-4.2-4.3 1.7c-3.3 1.3-4.2 1.8-3.9 1.9 0.2 0.1 5 2 10.7 4.3zm23.8-6c-0.2 0-1.9 0.7-3.8 1.5l-3.5 1.4-0.2 5.5-2.2 0.9-2.3 0.9v-2.7c0-1.5 0-2.7 0-2.7-0.1 0-2.3 0.9-5.1 2l-5 2-0.1 14.2c0 7.7 0.1 14.1 0.1 14.1 0.1 0 4.4-1.7 9.7-3.8l9.5-3.9-1.3-0.1c-1.7-0.1-2.9-0.7-4-1.9-2.1-2.3-2-5.7 0.2-7.9 1-1 1.4-1.2 4.7-2.5l3.6-1.5v-7.7c0.1-7.3 0-7.8-0.3-7.8z"/></svg>