<svg version="1.2" xmlns="http://www.w3.org/2000/svg" viewBox="0 0 88 80" width="88" height="80"><style>.a{fill:#3f07af}</style><path fill-rule="evenodd" class="a" d="m77.9 43.8v11.1c0 5.6-4.7 10.3-10.3 10.3h-39.1c-0.5 0-0.9 0.1-1.2 0.4l-14.6 13.9c-0.7 0.7-1.8 0.8-2.6 0.4-0.9-0.5-1.4-1.5-1.2-2.4l2.2-12.3h-0.8c-5.7 0-10.3-4.7-10.3-10.3v-35.3c0-5.7 4.6-10.3 10.3-10.3h44.8c0.7 0 1.3 0.6 1.3 1.3 0 0.7-0.6 1.3-1.3 1.3h-44.8c-4.3 0-7.7 3.5-7.7 7.7v35.3c0 4.2 3.4 7.7 7.7 7.7h0.9c1.6 0 2.8 1.4 2.5 3l-2.1 11.4 14-13.3c0.8-0.7 1.8-1.1 2.9-1.1h39.1c4.2 0 7.7-3.5 7.7-7.7v-11.1c0-0.7 0.6-1.3 1.3-1.3 0.7 0 1.3 0.6 1.3 1.3zm-32.6-6.8c0 0.7-0.6 1.3-1.3 1.3h-29.8c-0.8 0-1.3-0.6-1.3-1.3 0-0.7 0.5-1.3 1.3-1.3h29.8c0.7 0 1.3 0.6 1.3 1.3zm0 11.9c0 0.7-0.6 1.3-1.3 1.3h-29.8c-0.8 0-1.3-0.6-1.3-1.3 0-0.7 0.5-1.3 1.3-1.3h29.8c0.7 0 1.3 0.6 1.3 1.3zm42.3-11.8c-0.6 0.9-1.5 1.4-2.6 1.4h-8.2c-1.1 3.4-4.3 5.8-8 5.8-3.6 0-6.8-2.4-7.9-5.8h-8.3c-1 0-2-0.5-2.5-1.4-0.8-1.3-0.5-2.9 0.7-3.9 4.3-3.5 6.8-8.7 6.8-14.3v-1.5c0-4.2 2.4-8 5.9-9.9v-1.7c0-3 2.4-5.4 5.3-5.4 3 0 5.3 2.4 5.3 5.4v1.7c3.6 1.9 6 5.7 6 9.9v1.5c0 5.6 2.4 10.8 6.8 14.3 1.1 1 1.5 2.6 0.7 3.9zm-21.5-30.6c1.8-0.4 3.7-0.4 5.5 0v-0.7c0-1.6-1.3-2.8-2.8-2.8-1.5 0-2.7 1.2-2.7 2.8zm7.9 32h-10.4c1 1.9 3 3.2 5.2 3.2 2.2 0 4.2-1.3 5.2-3.2zm11.3-3.3c-5-4-7.8-10-7.8-16.3v-1.5c0-4.8-3.9-8.7-8.7-8.7-4.8 0-8.6 3.9-8.6 8.7v1.5c0 6.3-2.9 12.3-7.8 16.3-0.4 0.2-0.1 0.7 0.2 0.7 5.8 0 28.7 0 32.4 0 0.4 0 0.6-0.5 0.3-0.7zm-35.2-8.8h-35.9c-0.8 0-1.3-0.6-1.3-1.3 0-0.7 0.5-1.3 1.3-1.3h35.9c0.7 0 1.2 0.6 1.2 1.3 0 0.7-0.5 1.3-1.2 1.3z"/></svg>