<svg version="1.2" xmlns="http://www.w3.org/2000/svg" viewBox="0 0 88 68" width="88" height="68"><style>.a{fill:#3f07af}</style><path fill-rule="evenodd" class="a" d="m88 10.8v46.5c0 5.1-4.1 9.2-9.2 9.2h-69.6c-5.1 0-9.2-4.1-9.2-9.2v-46.5c0-5.1 4.1-9.2 9.2-9.2h69.6c5.1 0 9.2 4.1 9.2 9.2zm-3.7 0c0-3.1-2.4-5.5-5.5-5.5h-69.6c-3.1 0-5.5 2.4-5.5 5.5v46.5c0 3.1 2.4 5.5 5.5 5.5h69.6c3.1 0 5.5-2.4 5.5-5.5zm-47.7 30.4c2.7 2.8 4.2 6.6 4.2 10.8 0 1-0.8 1.8-1.8 1.8h-25.4c-1 0-1.9-0.8-1.9-1.8 0-4.2 1.5-8 4.3-10.8 2.7-2.8 6.4-4.3 10.3-4.3 3.9 0 7.6 1.5 10.3 4.3zm0.5 8.9c-0.4-2.4-1.4-4.6-3.1-6.3-2.1-2.1-4.8-3.2-7.7-3.2-2.9 0-5.7 1.1-7.7 3.2-1.7 1.7-2.8 3.9-3.1 6.3zm-10.7-16.7c-5.3 0-9.5-4.3-9.5-9.5 0-5.2 4.2-9.5 9.5-9.5 5.2 0 9.4 4.3 9.4 9.5 0 5.2-4.2 9.5-9.4 9.5zm5.8-9.5c0-3.2-2.6-5.8-5.8-5.8-3.2 0-5.8 2.6-5.8 5.8 0 3.2 2.6 5.8 5.8 5.8 3.2 0 5.8-2.6 5.8-5.8zm44 10.2c0 1-0.8 1.8-1.8 1.8h-21.4c-1 0-1.8-0.8-1.8-1.8 0-1 0.8-1.8 1.8-1.8h21.4c1 0 1.8 0.8 1.8 1.8zm0 11.7c0 1.1-0.8 1.9-1.8 1.9h-21.4c-1 0-1.8-0.8-1.8-1.9 0-1 0.8-1.8 1.8-1.8h21.4c1 0 1.8 0.8 1.8 1.8zm0-23.4c0 1-0.8 1.8-1.8 1.8h-21.4c-1 0-1.8-0.8-1.8-1.8 0-1 0.8-1.9 1.8-1.9h21.4c1 0 1.8 0.9 1.8 1.9z"/></svg>