<svg version="1.2" xmlns="http://www.w3.org/2000/svg" viewBox="0 0 88 88" width="88" height="88"><style>.a{fill:#3f07af}</style><path fill-rule="evenodd" class="a" d="m88 9.7v65.3c0 0.8-0.4 1.6-1.3 1.7l-42.3 10.9c-0.3 0-0.4 0-0.7 0-0.1 0 2.9 0.7-42.4-10.9-0.7-0.1-1.3-0.9-1.3-1.7v-65.3c0-0.7 0.6-1.4 1.3-1.7 0.2 0-2.6 0.4 42.4-7.3 0.2 0 0.4 0 0.6 0 37.8 6.5 42.1 7.3 42.2 7.3 0.3 0 0.6 0.1 0.8 0.3 0 0 0 0 0.1 0.1 0.5 0.3 0.6 0.7 0.6 1.3zm-54.3-3.8l29.7 7.7 14.2-3.6-33.6-5.8zm12 16v36.1l38.5-9.9v-36.1c-2.2 0.4-37.7 9.7-38.5 9.9zm-3.6 10.8l-38.5-9.8v12.4l29.8 7c0.9 0.3 1.6 1.2 1.3 2.2-0.1 0.8-0.9 1.4-1.7 1.4-0.5 0 1.4 0.3-29.4-6.8v34.4l38.5 9.8zm0-10.8l-38.5-9.9v7.1l38.5 9.9zm13.9-6.4l-31.1-8-14.5 2.5 33.6 8.7zm28.3 36.4l-38.6 9.8v21.6l38.6-9.8v-7.3l-28.9 6.7c-1 0.3-1.9-0.3-2.2-1.3-0.3-1 0.3-1.9 1.3-2.2l29.8-6.8zm-18.4-4.4c-7 0-12.7-5.6-12.7-12.6 0-7 5.7-12.6 12.7-12.6 7.1 0 12.8 5.6 12.8 12.6 0 7-5.7 12.6-12.8 12.6zm9.1-12.4c0-5-4-9-9.1-9-5 0-9.1 4-9.1 9 0 4.9 4.1 9 9.1 9 5.1 0 9.1-4.1 9.1-9zm-14.6 0c0-1 0.8-1.9 1.9-1.9h7.3c1 0 1.8 0.9 1.9 1.9 0 0.8-0.9 1.7-1.9 1.7h-7.3c-1.1 0-1.9-0.7-1.9-1.7z"/></svg>