<svg version="1.2" xmlns="http://www.w3.org/2000/svg" viewBox="0 0 88 92" width="88" height="92"><style>.a{fill:#3f07af}</style><path class="a" d="m36.4 66.5c-0.7 0-1.2 0.5-1.2 1.2v15.6c0 4.3 3.5 7.8 7.8 7.8h37.2c4.3 0 7.8-3.5 7.8-7.8v-72.3c0-4.4-3.5-7.9-7.8-7.9h-37.2c-4.3 0-7.8 3.5-7.8 7.9v15.5c0 0.7 0.5 1.2 1.2 1.2 0.6 0 1.2-0.5 1.2-1.2v-15.5c0-3 2.4-5.5 5.4-5.5h37.2c3 0 5.4 2.5 5.4 5.5v72.3c0 3-2.4 5.4-5.4 5.4h-37.2c-3 0-5.4-2.4-5.4-5.4v-15.6c0-0.7-0.6-1.2-1.2-1.2zm-35.9-20.3c-0.3 0.2-0.5 0.5-0.5 0.9 0 0.4 0.2 0.7 0.5 1l16.8 12.6q0.3 0.2 0.7 0.2c0.4 0 0.7-0.2 1-0.5 0.4-0.5 0.2-1.2-0.3-1.6l-13.9-10.5h56.8c0.7 0 1.2-0.5 1.2-1.2 0-0.6-0.5-1.2-1.2-1.2h-56.8l13.9-10.4c0.5-0.4 0.7-1.2 0.3-1.7-0.4-0.5-1.2-0.6-1.7-0.2z"/></svg>