<svg version="1.2" xmlns="http://www.w3.org/2000/svg" viewBox="0 0 120 84" width="120" height="84"><style>.a{fill:#3f07af}</style><path fill-rule="evenodd" class="a" d="m120 51.6v13.7c0 2.5-2.1 4.6-4.6 4.6h-28.4v5.8c0 2.7-2.1 4.8-4.8 4.8h-44.4c-2.7 0-4.8-2.1-4.8-4.8v-5.8h-28.4c-2.5 0-4.6-2.1-4.6-4.6v-13.7c0-10.1 8.2-18.3 18.3-18.3h13.8c6.3 0 12.2 3.4 15.6 8.7q2.3-0.6 4.8-0.6h15q2.5 0 4.8 0.6c3.4-5.3 9.3-8.7 15.6-8.7h13.8c10.1 0 18.3 8.2 18.3 18.3zm-76.4-8c-2.6-3.7-6.9-6-11.5-6h-13.8c-7.7 0-14 6.3-14 14v13.7c0 0.1 0.1 0.3 0.3 0.3h28.4v-4.6c0-7.6 4.3-14.1 10.6-17.4zm39.1 17.4c0-6.6-4.1-12.2-9.9-14.3q-0.1-0.1-0.3-0.1c-1.6-0.6-3.3-0.9-5-0.9h-15c-1.7 0-3.4 0.3-5 0.9q-0.2 0-0.3 0.1c-5.8 2.1-9.9 7.7-9.9 14.3v14.7c0 0.3 0.2 0.5 0.5 0.5h9.8v-14c0-1.2 0.9-2.2 2.1-2.2 1.2 0 2.2 1 2.2 2.2v14h16.2v-14c0-1.2 1-2.2 2.2-2.2 1.2 0 2.1 1 2.1 2.2v14h9.8c0.3 0 0.5-0.2 0.5-0.5zm33-9.4c0-7.7-6.3-13.9-14-13.9h-13.8c-4.6 0-8.9 2.3-11.5 6 6.3 3.2 10.6 9.8 10.6 17.3v4.6h28.4c0.2 0 0.3-0.1 0.3-0.3zm-20.9-22.5c-7.5 0-13.5-6.1-13.5-13.6 0-7.4 6-13.5 13.5-13.5 7.5 0 13.5 6.1 13.5 13.5 0 7.5-6 13.6-13.5 13.6zm9.2-13.6c0-5.1-4.1-9.2-9.2-9.2-5.1 0-9.2 4.1-9.2 9.2 0 5.2 4.1 9.3 9.2 9.3 5.1 0 9.2-4.1 9.2-9.3zm-78.8 13.6c-7.5 0-13.5-6.1-13.5-13.6 0-7.4 6-13.5 13.5-13.5 7.5 0 13.5 6.1 13.5 13.5 0 7.5-6 13.6-13.5 13.6zm9.2-13.6c0-5.1-4.1-9.2-9.2-9.2-5.1 0-9.3 4.1-9.3 9.2 0 5.2 4.2 9.3 9.3 9.3 5.1 0 9.2-4.1 9.2-9.3zm25.6 21c-8 0-14.4-6.5-14.4-14.4 0-8 6.4-14.5 14.4-14.5 8 0 14.4 6.5 14.4 14.5 0 7.9-6.4 14.4-14.4 14.4zm10.1-14.4c0-5.6-4.5-10.2-10.1-10.2-5.6 0-10.1 4.6-10.1 10.2 0 5.6 4.5 10.1 10.1 10.1 5.6 0 10.1-4.5 10.1-10.1z"/></svg>