<svg version="1.2" xmlns="http://www.w3.org/2000/svg" viewBox="0 0 88 92" width="88" height="92"><style>.a{fill:#3f07af}</style><path fill-rule="evenodd" class="a" d="m40.3 73.8c0 1-0.8 1.8-1.8 1.8h-33.6c-2.7 0-4.9-2.1-4.9-4.8v-44.7q0 0 0 0 0-0.1 0-0.1 0 0 0 0 0-0.1 0-0.2 0.1-0.3 0.2-0.5 0 0 0 0l11.1-20.1c1-1.8 2.8-2.9 4.8-2.9h41.1c2 0 3.9 1.1 4.8 2.8l11.1 20.2q0.2 0.4 0.2 0.8 0 0 0 0v14.7c0 1-0.8 1.8-1.8 1.8-1 0-1.8-0.8-1.8-1.8v-12.8h-66v42.8c0 0.6 0.5 1.2 1.2 1.2h33.6c1 0 1.8 0.8 1.8 1.8zm-1.8-49.5h29.9l-9.6-17.4c-0.3-0.6-0.9-0.9-1.6-0.9h-18.7zm-33.6 0h29.9v-18.4h-18.7c-0.7 0-1.3 0.4-1.6 1zm83.1 35.3c0 13.2-21.8 29.6-22.8 30.3q-0.5 0.4-1.1 0.4-0.5 0-1.1-0.4c-0.9-0.7-22.7-17.1-22.7-30.3 0-7.3 6-13.3 13.3-13.3 4.2 0 8.1 1.9 10.5 5.1 2.5-3.2 6.4-5.1 10.6-5.1 7.3 0 13.3 6 13.3 13.3zm-3.7 0c0-5.3-4.3-9.6-9.6-9.6-3.9 0-7.3 2.2-8.9 5.7-0.6 1.4-2.8 1.4-3.3 0-1.6-3.5-5-5.7-8.9-5.7-5.3 0-9.6 4.3-9.6 9.6 0 8.9 13.6 21.4 20.1 26.5 6.6-5.1 20.2-17.6 20.2-26.5z"/></svg>